<?xml version="1.0" encoding="UTF-8"?>
<svg id="Layer_2" data-name="Layer 2" xmlns="http://www.w3.org/2000/svg" viewBox="0 0 1070.77 297.49">
  <defs>
    <style>
      .cls-1 {
        fill: #ffe15e;
      }

      .cls-2 {
        fill: #233b55;
      }

      .cls-3 {
        fill: #333;
      }
    </style>
  </defs>
  <g id="Logo_PtX_MULTI" data-name="Logo PtX MULTI">
    <g id="Logo_PtX_MULTI_-_Short" data-name="Logo PtX MULTI - Short">
      <g>
        <g id="Map">
          <path class="cls-2" d="M1070.6,114.7c-.13-.15-.33-.23-.58-.23-.05,0-.12-.07-.13-.07-.04-.39-.12-.77-.19-1.13-.18-.87-.35-1.69-.01-2.51.15-.38.51-1.25-.28-1.81-.59-.42-1.27-.57-1.94-.43-.67.14-1.25.56-1.63,1.19-.01.02-.05.07-.2.15-.58.37-1.25.54-1.96.73-.68.18-1.39.37-2.05.74-.58.32-1.31.38-2.26.17-.75-.16-1.37.18-1.91.47-.92.5-1.52.59-2.09.29-.48-.25-.91-.24-1.35.05-.31.2-.61.4-.91.61-.49.33-1,.68-1.51.98-.5.29-.79.44-1.34.18-.95-.45-1.81-.52-2.48-.23-.6.27-1.16.62-1.71.97l-.14.09c-.92.59-1.71.94-2.62.77-1.33-.26-2.39-1.06-3.23-2.46-.09-.14-.16-.27-.23-.41-.34-.62-.73-1.32-1.65-1.69-.17-.07-.33-.1-.49-.12.21-.16.39-.29.58-.34.77-.19.89-.67.9-1.16.03-1.3-1.53-3.76-2.71-4.26-.05-.02-.12-.07-.22-.09-.97-.2-1.52-.65-1.79-1.44-.1-.32-.33-.54-.52-.73-.07-.07-.15-.14-.21-.21-.38-.48-.88-.76-1.36-1.04-.53-.3-1.04-.59-1.33-1.13-.35-.68-.85-1.6-1.86-1.79-.58-.11-1.08-.42-1.6-.75-.37-.23-.76-.48-1.2-.66t-.11-.15c-.02-.06-.05-.12-.08-.18-.44-.79-1.37-1.47-2.23-1.19-.52.17-.74-.22-.75-.22-.12-.54-.44-.95-.72-1.32-.28-.38-.53-.7-.58-1.12-.14-1.36-.62-2.63-1.07-3.86l-.03-.06c-.65-1.75-1.38-3.4-3.14-4.4l-.12-.06c-.37-.21-.66-.37-.83-.77-.3-.72-1.14-1.14-1.82-1.3-.46-.11-.61-.29-.7-.54-.07-.21-.15-.41-.23-.61-.25-.68-.5-1.32-.55-1.96-.06-.74-.18-1.48-.29-2.19-.2-1.24-.39-2.4-.3-3.6.02-.39-.15-.64-.32-.87-.64-.81-1.29-1.64-1.18-2.73.05-.46-.21-.87-.66-1.09-.49-.23-.9-.59-1.33-.98-.64-.57-1.29-1.15-2.23-1.36-.02-.02-.03-.04-.05-.06-.04-.07-.1-.15-.19-.22-.42-.36-.62-.85-.84-1.38-.09-.22-.19-.44-.3-.67v-.93c.36.26.67.13.79.06.27-.17.52-.51.15-1.13l-.03-.05c-.12-.2-.25-.43-.55-.62-1.13-.73-1.85-1.48-2.33-2.44-.09-.18-.17-.37-.25-.56-.27-.61-.56-1.3-1.2-1.77-.42-1.3-1.25-2.31-2.06-3.29l-.18-.22c-.16-.42-.37-.82-.57-1.2-.35-.67-.67-1.3-.8-2.01-.09-.46-.24-.98-.71-1.36-.03-.03-.09-.08-.14-.12.02-.05.05-.1.08-.15l.04-.08c.13-.26.14-.55.04-.83.6.28,1.18.3,1.61.04.27-.16.71-.58.66-1.54-.06-1.31.3-2.58.65-3.81l.13-.43c.52-1.85.17-3.48-1.14-5.27-.2-1.15-.77-2.11-1.29-2.96v-.03c0-.16,0-.43-.22-.63-.14-.14-.34-.2-.61-.18h-.13c-.31.02-.68.03-1.03.25-.72.45-1.26.5-1.79.18-.77-.47-1.41-.16-1.87.16-.13.09-.23.2-.33.3-.18.17-.26.25-.34.26-.34-.49-.85-.73-1.3-.95-.42-.2-.79-.37-1-.71-.09-.15-.25-.24-.48-.27-.14,0-.48-.03-.69.17-.31.29-.52.23-1.06-.02-.14-.06-.28-.13-.42-.18-.36-.12-.88-.23-1.36-.08-1.51.51-3.1,1.09-4.5,2.16-.12.09-.24.19-.36.3-.63.5-1.17.95-1.93.72-.6-.68-1.45-.75-2.07-.8-.21-.01-.4,0-.59.02-.3.02-.56.04-.76-.08-.42-.27-.85-.38-1.27-.49-.38-.1-.74-.2-1.08-.39-.85-.49-1.9-.56-2.92-.63-.38-.03-.79-.05-1.16-.1-1.09-.45-2.12-.17-2.81.09-.43.16-.46.14-.62-.24-.7-1.73-1.21-1.84-2.94-1.55-.56.09-.97.1-1.27-.15-.68-.55-1.42-.6-1.99-.59-.6.03-.86-.21-.91-.78v-.11c-.01-.22-.04-.81-.61-.9-.42-.06-.82-.22-1.24-.38-.42-.17-.86-.34-1.34-.42-1.44-.24-2.67-.16-4,.25-1.23.39-2.65.89-3.92,1.86-1.54,1.18-1.99,3.17-1.03,4.62.49.75.33,1.18-.19,1.8-1.59,1.94-2.55,2.16-4.1.97l-.07-.05c-.68-.53-1.39-1.07-2.27-1.47-1.52-.67-3.24-1.44-5.19-1.47-2.25-.05-3.21-.92-3.53-3.21-.08-.57-.26-1.74-1.65-1.66-.19.01-.43-.06-.69-.14-.14-.05-.28-.09-.42-.12-.4-.1-.77-.32-1.15-.56-.55-.34-1.11-.68-1.85-.73-.33-.02-.66-.12-1.02-.23-.72-.22-1.53-.46-2.44-.04-.71.32-1.43.2-2.34-.4-.6-.4-1.19-.66-1.85-.81-.09-.02-.19-.03-.29-.05-.51-.1-.94-.2-.98-.46-.05-.32-.14-.61-.22-.89-.1-.32-.18-.62-.21-.92-.06-.65-.38-.98-.95-.98h-.09c-.25,0-.89-.03-.97.8,0,0-.02.05-.07.09-.04.03-.08.05-.14.04-.4-.06-.67-.33-.94-.95-.04-.11-.17-.4.35-.63,1.19-.53,2.14-1.34,2.9-2.46.52-.77.67-1.44.51-2.4-.13-.8-.33-1.55-1.35-2.01-.14-.07-.28-.32-.31-.61-.04-.28.03-.44.05-.46.68-.25,1.07-.72,1.41-1.14.14-.18.27-.34.42-.49.46-.44.58-.94.4-1.58-.16-.57-.62-.7-.93-.8-.14-.04-.27-.08-.34-.14-.2-.22-.53-.22-.76,0-.24.22-.33.63-.09.89-.01,0-.02.01-.02.01-.27,0-.47.11-.63.22-.02-.07-.04-.14-.06-.21-.05-.16-.09-.3-.08-.41v-.05c.02-.27.05-.82-.61-1.03-1.14-.37-2.82-.74-4.22.33-.67.51-1.42.56-2.22.62-.47.04-.95.07-1.43.2-.06-.09-.16-.23-.32-.31-.26-.23-.57-.33-.83-.41-.1-.03-.21-.07-.31-.11-.07-.03-.65-.28-1.1-.07-.2.09-.33.25-.39.46,0,.04-.02.07-.02.09-.04-.01-.09-.02-.12-.03l-.1-.03c-.11-.02-.24-.04-.37-.06-.1-.01-.24-.03-.32-.05-.43-.75-1.01-.69-1.44-.53l-.05-.14-.46.37s-.06.03-.09.05c-.1.05-.34.18-.44.42-.19.03-.36.07-.53.1-.34.08-.67.15-.98.1-.18-.03-.61-.03-.86.53-.04.01-.1,0-.26-.02-.03-.01-.06-.01-.09-.02-.03-.2-.16-.32-.29-.4-.08-.13-.22-.23-.42-.27-.2-.18-.41-.21-.58-.2-1.15-.22-2.66-.45-4.2-.26-.08.01-.2.04-.29.17-.46.19-.97.21-1.4.06-.53-.19-1.16-.3-1.69.38l-.09.09s-.06.03-.09.04c-.03.02-.08.04-.12.05-.89-.2-1.77-.11-2.61-.02-.68.07-1.31.13-1.95.06l-.1-.02c-.28-.04-.71-.1-1.07.21-.14.02-.29.1-.44.25-.08.02-.16.04-.25.05-.26.04-.57.08-.84.32-.06.01-.13.03-.19.04-.2.04-.45.09-.68.27-.13.02-.27.07-.4.19-.2.03-.37.15-.52.35-.21.16-.33.34-.36.54l-.06.06c-.14.14-.25.19-.27.2-.28-.3-.57-.45-.86-.45-.4.01-.7.27-.95.52-.06.06-.19.07-.4.07h-.17c-.06.01-.13,0-.19,0-.27-.03-.72-.06-1.04.37l-.02.02c-.2.02-.39.14-.54.35-.21.16-.33.34-.36.54l-.1.1-.03.06s-.14.03-.21.04c-.21.03-.57.06-.8.38l-.02.02c-.14.02-.3.09-.45.26-.36.1-.74.02-1.15-.07-.31-.06-.63-.13-.96-.12h-.17c3.89,6.5,6.12,14.09,6.12,22.19,0,23.92-19.46,43.38-43.38,43.38-8.77,0-16.94-2.62-23.77-7.12-.2.15-.47.37-.51.77-.23.31-.2.65-.17.89,0,.07.01.14.01.2-.76.89-.33,1.56-.11,1.82.11.12.19.27.28.43.1.18.21.37.36.55,0,.55.06,1.09.12,1.62.07.69.15,1.34.08,1.99-.28.53-.36,1.09-.38,1.59-.2.21-.18.49-.18.6v.03c-.37.53-.66,1.11-.87,1.73-.12.09-.2.23-.24.41-.1.1-.17.25-.19.44-.18.19-.3.42-.36.68-.2.19-.21.45-.21.59-.21.21-.19.49-.18.6-.28.34-.36.72-.38,1.03-.21,2.33-1.4,4.04-3.64,5.22-.02.01-.04.01-.07.02-.42.13-.62.4-.58.78.02.29.14.52.32.67.17.14.38.2.61.17.17-.02.24,0,.37.43.11.38.31.72.49,1.05.31.55.58,1.02.47,1.61l-.08.4.4.09s.03,0,.05.01c0,.04-.01.1-.01.14-.02.14-.03.32.03.51-.18-.01-.37.02-.52.17-.06.07-.16.2-.16.4v.02c-.04.11-.1.26-.1.41v.07c-.02.84-.03,1.64-.17,2.45-.1.65-.38,2.37,1.36,3.05.01.03.01.11.01.15v.1c.04.55.25.91.54,1.16-.18.02-.36.08-.55.18-.34.19-.44.42-.46.59-.02.16.02.3.08.43-.33.11-.42.38-.43.62-.02.31.09.7.72.76h.05c.06.07.13.12.2.15-.01.23.03.54.26.76.33.31.79.21,1.15.13l.15-.03c.29-.06.51-.22.7-.35.22-.15.36-.24.53-.24.22,0,.43-.14.59-.31.1.49.47.79.76,1.04.26.21.48.39.53.65.04.19.18.35.37.4.28.07.58-.09.74-.27.01-.02.02-.03.04-.05.12.4.21.78.18,1.16-.01.12.02.28.19.4.18.18.33.39.5.61.32.45.68.96,1.34,1.25.36.17.68.49,1.02.83.16.16.32.32.48.47.01,0,.01.01.02.01t0,0c-.11.02-.34.06-.48.28-.14.2-.11.44-.07.6l.09.42.42-.1c.71-.18.84.07,1.16.9.05.12.1.25.15.37.12.28.12.61.12.95,0,.37,0,.77.15,1.16-.15.08-.23.19-.26.25-.16.3-.03.67.18.85.15.13.2.21-.05.76l-.41.89.93-.32c.46-.16.65-.19.75-.18,0,.06-.01.19-.09.44-.07.23-.03.43.06.58-.13.01-.26.05-.4.11l-.31.14.1.44c.06.26.17.81.73.86.48.05.89.29,1.33.55.25.14.51.29.8.42.24.1.49.19.74.29.87.33,1.69.64,2.25,1.34.75.94,1.62,1.62,2.66,2.11-.02.65.4,1.07,1.26,1.24.6.12,1,.49,1.47.93.17.16.34.32.53.47.54.43.99.95,1.47,1.49.6.68,1.22,1.38,2.04,1.94,1.16.79,2.42,1.38,3.64,1.95.68.31,1.39.64,2.06,1,.46.25,1.1.23,1.71-.06.23-.11.46-.23.68-.34.82-.4,1.6-.78,2.44-1.03.51-.15.99-.37,1.46-.59.56-.25,1.09-.49,1.62-.6,1.28-.26,2.62-.36,3.92-.46.65-.05,1.32-.1,1.97-.16,1.28-.14,2.51.12,3.81.4.33.07.66.14.99.21.24.04.48.08.73.12.81.11,1.57.22,2.15.73.56.48,1.08.38,1.53.29l.16-.03c.49-.09.84-.35,1.15-.58.28-.21.52-.39.84-.45,1.27-.25,2.72-.53,3.99-1.25l.14-.08c1.49-.84,2.89-1.64,4.6-1.42,1.08.14,1.42-.5,1.51-1.06.03-.21.16-.38.23-.39.52-.04,1.01-.17,1.48-.31.41-.11.8-.22,1.18-.26l.51-.04c2.54-.25,5.17-.5,7.75-.35,1.06.06,1.92.26,2.66,1.06,1.27,1.36,1.99,2.94,2.69,4.88.53,1.48,1.56,2.43,2.83,2.6,1.03.14,2.05-.02,3.04-.18.65-.11,1.31-.22,1.96-.23.48-.01.92-.14,1.34-.26s.83-.24,1.23-.23c.09.01.19.01.29.02.39.02.94.06,1.35-.25.09.14.2.27.35.35.28.17.63.17,1.06,0,0,.01,0,.02,0,.03.07.13.11.3.15.48.09.42.2.94.74,1.25.49.27,1.14.65,1.89.56-.07.6.17,1.21.7,1.69.49.45.62.84.48,1.44-.33,1.39-.48,2.61-.45,3.74.01.37-.05.62-.18.82-.16.25-.34.5-.51.75-.23.34-.48.69-.7,1.06l-.06.09c-.19.3-.45.71-.26,1.12.16.32.52.43.76.48-.03.24,0,.46.07.66-.29.01-.83.04-.95.66-.1.45-.05.85.11,1.2l-.16.02v.37c0,.12.01.25.01.37,0,.25.01.49-.01.72-.08.97-.3,1.57-.66,1.81-.26.17-.64.17-1.17,0l-.38-.12-.14.38c-.19.51-.1,1.03.27,1.59.6.93,1.27,2.02,1.62,3.06.48,1.46,1.39,2.52,2.26,3.54l.22.26c.5.59,1.1,1.08,1.68,1.56.51.41.98.8,1.4,1.24.62.67,1.22,1.34,1.83,2.01.8.89,1.62,1.81,2.46,2.69.32.33.54.76.78,1.23.21.42.44.86.75,1.25.21.27.48.65.56,1.07-.01.03-.07.11-.1.16-.12.16-.47.63-.01,1.05.44.41.55.95.66,1.56.06.31.12.63.23.94.2.56.55.97.88,1.37.3.35.57.68.71,1.06l.21.61c.59,1.69,1.2,3.43,2.21,5.01.1.16.13.62.07.78-.52.39-1.2,1-1.32,1.82-.08.54.08,1.09.5,1.68v.02c.26,1.54,1.04,2.88,1.77,3.99.66,1.01,1.03,1.85.85,2.92-.02.1-.04.19-.05.29-.07.37-.15.75-.14,1.15.06,1.89-.3,2.55-1.88,3.58-1.07.69-1.05,1.14-1.04,1.29.02.51-.24.74-.7,1.11-.19.16-.39.32-.56.51-.02.03-.05.04-.07.06-.14.09-.47.3-.41.72.05.39-.09.77-.24,1.18-.13.37-.27.75-.26,1.15.01,1.09-.3,2.09-.62,3.15-.25.82-.51,1.68-.61,2.57v.06c-.03.19-.06.5-.18.55-1.06.39-.92,1.17-.82,1.7.01.08.03.16.04.25.03.18.08.37.14.55.05.18.14.51.13.64-.94.49-.61,1.18-.47,1.48l.04.07c.36.79.27,1.6.11,2.36-.08.36-.14.78-.06,1.18.34,1.58.9,3.36,2.46,4.64.14.12.27.3.39.49l.04.05c1.03,1.55,1.86,3.25,2.66,4.9.62,1.29,1.27,2.62,2.01,3.88.14.23.28.47.42.71.53.93,1.09,1.9,1.82,2.76l.19.23c.95,1.11,1.77,2.06,1.07,3.51-.13.28-.06.57,0,.81,0,.06.02.11.03.16.03.2.08.4.12.6.13.59.27,1.2.12,1.63-.42,1.26.1,2.29.51,3.11.07.13.13.26.19.39.34.72.66,1.4.66,2.19-.01,1.72.41,3.55,1.18,5.16q.03.06.03.09c-.12,1.27.44,2.38.93,3.35l.14.27c1.04,2.1,2.5,3.83,4.33,5.15.04.02.09.08.14.16.99,1.51,1.59,3.16,2.22,4.9l.24.67c.77,2.09,1.7,3.76,2.87,5.1.99,1.15,1.14,2.47,1.15,3.61,0,.37-.08.48-.12.51-.06.05-.18.05-.34.02-.31-.06-.57-.02-.77.13-.32.23-.36.63-.39.94-.01.07-.02.13-.02.19-.09.59.24.99.51,1.31.29.34.39.5.3.76-.05.14-.03.29.05.41.15.22.4.23.55.23.03,0,.05,0,.06.01.19.02.38.17.48.39.08.16.12.4,0,.58-.52.79-.21,1.53.04,2.12.09.21.26.48.55.59.19.07.39.06.58-.03.3-.14.42-.34.46-.49.01-.03.02-.07.02-.1.25.42.79.54,1.07.6l.13.03c.17.04.26.16.42.4.13.2.28.42.54.58.82.49,1.45.73,2.04.73.66,0,1.28-.31,2.05-.94.26-.19,1.95-.54,2.47-.6.25-.03.53-.02.82-.02.83.02,1.86.05,2.62-.94.22-.29.56-.45,1.1-.51.43-.04.86.04,1.3.12.4.08.79.16,1.24.15.36,0,.66-.15.9-.26.25-.13.39-.19.54-.15.36.1.72.16,1.07.23.67.12,1.31.24,1.88.57.35.2.94.27,1.32.15.24-.07.36-.22.41-.33.3-.64.55-.7,1.41-.31.25.12.52.1.75.07.08,0,.16-.02.25-.01.22,0,.4-.06.53-.19.21-.19.21-.47.21-.56,0-.28.08-.5.21-.58.11-.07.26-.03.36.02,1.6.72,2.88,0,4.01-.64l.31-.18c1.12-.61,2.14-1.4,3.13-2.17.42-.33.85-.66,1.29-.98l.06-.04c1.11-.82,2.26-1.66,3.15-2.83.37-.5.77-.86,1.23-1.13,2.14-1.24,3.49-3.21,4.79-5.11.15-.22.3-.44.45-.66.29-.43.55-.87.79-1.31.49-.86.94-1.68,1.69-2.29.13-.11.26-.23.39-.34.47-.4.92-.79,1.49-1.03,1.26-.54,2.17-1.76,2.5-3.33.17-.8.48-1.59.77-2.36.46-1.16.92-2.37.96-3.71,0-.28.06-.57.12-.88.11-.63.24-1.33,0-2.13l-.18-.62c.24-.29.59-.48,1.01-.71,1.77-.96,3.74-1.52,5.65-2.06l.2-.06c1.29-.37,2.1-1.23,2.72-2.03.08-.1.16-.19.24-.28.34-.36.81-.86.59-1.69-.34-1.28.1-2.45.62-3.53.05-.1.28-.62-.03-.92-.29-.28-.25-.49-.06-1.04.05-.13.1-.27.14-.42.12-.41.35-1.27-.72-1.58-.01-.02-.01-.05,0-.08.93-.25.85-1,.8-1.37,0-.11-.02-.22,0-.29,0-.04,0-.08,0-.12.12-.61-.05-.97-.49-1.07-.38-.08-.6.08-.73.28-.36-.49-.52-.8-.33-1.33.29-.78.01-1.8-.6-2.19-.55-.35-.54-.52-.38-1.27v-.08c.17-.76.22-1.01.95-1.29.91-.34,1.6-1.22,2.21-2l.16-.22c.45-.56.95-.92,1.17-.92,1.13-.05,1.64-.64,2.17-1.27.07-.09.15-.18.23-.27l.24-.27c1.25-1.41,2.53-2.87,4.23-3.75.24-.12.46-.26.69-.4.48-.28.94-.55,1.4-.66l.5-.11c1.36-.3,2.63-.58,3.93-1.38,1.32-.82,2.35-1.87,3.35-2.89l.29-.29c1.21-1.24,2.46-2.51,2.84-4.39.04-.18.11-.35.18-.53.11-.25.23-.54.27-.88.11-.85-.19-1.54-.48-2.2-.25-.57-.48-1.11-.43-1.7,0-.19.04-.38.07-.57.06-.41.13-.83.09-1.29-.04-.36-.09-.75-.29-1.11.52-.26.63-.79.65-1.31.04-.83-.1-1.63-.24-2.41-.15-.9-.3-1.74-.2-2.61.01-.07.02-.14.02-.2,0-.02.01-.05.01-.08h.09c.17.02.46.04.67-.17.09-.1.2-.27.17-.56,0-.03.02-.12.02-.17.04-.22.14-.87-.53-1.01-.02,0-.04,0-.05,0,0-.04.01-.08.01-.11l.02-.11c.22-1.9-.13-2.54-1.8-3.27-.47-.2-.69-.46-.93-1.09-.2-.54-.29-1.11-.38-1.72-.14-.9-.28-1.84-.84-2.72-.5-.77-.53-1.4-.11-2,.36-.51.28-1.51-.02-1.99-.4-.61-.19-.98.34-1.61.36-.44.48-.97.32-1.43-.14-.4-.48-.68-.93-.78-.07-.02-.09-.02-.13-.26-.11-.68-.61-1.11-1.04-1.28-.42-.17-.5-.27-.5-.66,0-.18-.03-.36-.05-.51-.05-.3-.08-.49.03-.7l.2-.38c.43-.82.88-1.67,1.1-2.59.18-.75.38-1.42.97-1.92.39-.34.62-.77.83-1.19l.11-.2c.27-.51.49-1.05.71-1.57.25-.6.48-1.16.78-1.69l.05-.09c.52-.9,1.01-1.75.93-2.92-.01-.2.24-.36.49-.42,1.66-.34,2.04-.72,2.28-2.25.01-.09.02-.14.04-.17,1.25.26,1.86-.57,2.3-1.18.11-.15.22-.3.34-.43.48-.54.84-1.16,1.19-1.76.22-.37.42-.72.65-1.06.5-.7,1.15-1.35,1.77-1.98.26-.25.51-.5.76-.76.43-.45.86-.91,1.28-1.37,1.25-1.34,2.54-2.73,3.96-3.94l.25-.23c1.42-1.21,2.75-2.36,4.35-3.23l.32-.17c1.13-.61,2.3-1.25,3.24-2.24.37-.38.73-.76,1.09-1.14,2.77-2.88,5.64-5.86,7.66-9.49.29-.52.62-1.04.93-1.54.92-1.48,1.88-3.02,2.2-4.89.22-1.28.97-2.35,1.68-3.22.43-.53.57-1.12.71-1.69.16-.66.31-1.29.89-1.77.65-.55.94-1.37,1.21-2.16.21-.6.42-1.21.78-1.7.81-1.08.81-2.4.82-3.67,0-.4,0-.79.03-1.16.02-.31.05-.32.31-.43.04-.01.15,0,.22,0,.11,0,.22.01.32,0,.02-.01.05,0,.07,0,.14.01.38.03.58-.14.13-.12.21-.28.22-.49v-.06c.02-.17.05-.45-.15-.67ZM807.04,86.94c.03-.07.08-.11.09-.12l.09.19-.18-.07ZM994.33,44c-.01-.22-.07-.51-.35-.74-.35-.28-.54-.58-.59-.93.03.02.06.03.09.05l.76.76c.02.28.06.59.16.91-.02-.02-.04-.03-.07-.05Z"/>
        </g>
        <g>
          <path class="cls-3" d="M48.82,210.69c.78-10.17-4.69-17.87-15.52-17.87-15.78,0-17.47,9.91-17.47,17.47,0,6.78,3,10.95,9.26,13.3,5.22,1.96,10.3,3.91,15.52,5.87,18.52,6.91,21.91,13.43,21.91,26.34,0,18.52-11.61,29.34-30.38,29.34-9.65,0-21.12-2.74-26.73-15.52-2.09-4.82-1.96-12.65-2.09-17.86h10.82c-.52,14.47,2.22,23.6,18.52,23.6,10.95,0,18.65-5.61,18.65-17.08,0-14.87-6-15-15.91-18.78-5.35-2.09-13.95-4.83-19.17-7.56-9.26-4.69-11.61-12.52-11.61-22.17,0-16.17,11.34-26.73,27.25-26.73,17.86,0,28.82,9.26,27.78,27.64h-10.82Z"/>
          <path class="cls-3" d="M138.8,185h10.82v70.29c-.13,7.69,1.17,20.08,18.52,20.08s18.65-12.39,18.52-20.08v-70.29h10.82v74.2c0,17.47-11.61,25.95-29.34,25.95s-29.34-8.48-29.34-25.95v-74.2Z"/>
          <path class="cls-3" d="M339.49,185h19.04v97.8h-10.82v-80.59c0-4.17.26-8.22,0-12.39h-.26c-1.17,5.74-2.09,9.39-3,13.17l-20.47,79.81h-12.91l-20.47-80.98c-.91-3.39-1.7-6.65-2.87-12h-.26c0,4.17.26,8.48.26,12.65v80.33h-10.82v-97.8h19.17l19.17,76.28c1.04,4.17,1.56,8.22,2.09,14.47h.26c.65-4.96,1.3-9.78,2.48-14.6l19.43-76.15Z"/>
          <path class="cls-3" d="M500.02,185h19.04v97.8h-10.82v-80.59c0-4.17.26-8.22,0-12.39h-.26c-1.17,5.74-2.09,9.39-3,13.17l-20.47,79.81h-12.91l-20.47-80.98c-.91-3.39-1.69-6.65-2.87-12h-.26c0,4.17.26,8.48.26,12.65v80.33h-10.82v-97.8h19.17l19.17,76.28c1.04,4.17,1.56,8.22,2.09,14.47h.26c.65-4.96,1.3-9.78,2.48-14.6l19.43-76.15Z"/>
          <path class="cls-3" d="M600.83,282.81v-97.8h10.82v97.8h-10.82Z"/>
          <path class="cls-3" d="M685.33,185h61.42v9.78h-25.3v88.02h-10.82v-88.02h-25.3v-9.78Z"/>
        </g>
        <g>
          <path class="cls-2" d="M51.74,150.87h-20.27L0,3.31h18.1l19.28,101.72c1.77,10.03,3.15,20.26,4.33,34.04h.39c1.38-11.41,2.56-22.23,4.72-32.86L68.47,3.31h20.27l19.48,101.72c1.77,9.84,2.95,19.67,4.33,34.04h.39c1.38-11.41,2.56-22.23,4.72-32.86L139.1,3.31h18.1l-34.63,147.56h-20.27l-19.67-100.14c-1.97-9.64-3.15-19.48-4.33-35.61h-.39c-1.38,14.17-2.56,24.99-4.72,35.61l-21.45,100.14Z"/>
          <path class="cls-2" d="M206.19,153.82c-23.61,0-39.15-14.17-39.15-61.38,0-33.05,12.2-53.91,39.15-53.91s39.15,20.85,39.15,53.91c0,47.42-15.15,61.38-39.15,61.38ZM206.19,51.7c-15.94,0-23.02,12.59-23.02,45.65,0,25.77,4.92,43.28,23.02,43.28s23.02-17.51,23.02-43.28c0-33.05-6.69-45.65-23.02-45.65Z"/>
          <path class="cls-2" d="M286.26,59.38h.39c6.49-14.36,15.74-20.46,32.07-19.08v15.35c-20.07-3.54-31.87,9.05-31.87,28.92v66.3h-15.54V41.47h14.95v17.9Z"/>
          <path class="cls-2" d="M335.05,150.87V3.31h15.54v147.56h-15.54Z"/>
          <path class="cls-2" d="M432.44,3.31h15.54v147.56h-14.95v-14.36h-.39c-6.69,12.98-13.38,17.31-26.56,17.31-34.43,0-31.68-48.2-32.07-57.84-1.18-32.07,9.44-57.45,32.86-57.45,11.21,0,17.9,4.72,25.18,14.17h.39V3.31ZM432.44,94.4c0-14.95-.39-42.69-21.25-42.69-12.99,0-21.45,10.23-21.45,43.88,0,23.61.79,45.05,22.04,45.05,16.13,0,20.66-20.26,20.66-32.66v-13.58Z"/>
        </g>
        <g>
          <path class="cls-1" d="M473.63,151.25V3.69h41.12c13.38,0,32.66,1.18,42.3,12.2,8.07,9.05,9.64,20.07,9.64,32.07,0,15.94-3.74,33.84-19.48,41.12-12,5.9-25.97,4.13-38.96,4.72v57.45h-34.63ZM508.26,67.24c6.49-.2,13.97.59,19.48-3.74,3.54-3.94,4.33-9.84,4.33-14.95,0-5.71-.59-14.36-6.49-17.12-3.34-1.18-8.07-1.18-13.58-1.18h-3.74v36.99Z"/>
          <path class="cls-1" d="M574.96,63.7v-22.63h12.39V9.59h31.28v31.48h14.95v22.63h-14.95v58.04c0,6.3,2.75,7.67,6.89,7.67,3.54-.59,4.72-.39,8.07-.39v22.04c-6.69.98-13.18,1.77-20.07,1.77-16.92,0-26.17-8.66-26.17-25.38v-63.75h-12.39Z"/>
          <path class="cls-1" d="M693,48.55h.39l15.74-44.86h34.63l-30.69,73.98,32.07,73.58h-34.63l-16.72-44.07h-.39l-19.67,44.07h-33.05l32.86-73.58-31.09-73.98h34.43l16.13,44.86Z"/>
        </g>
        <g id="Circle">
          <path class="cls-1" d="M870.1,37.71c0,20.79-16.91,37.71-37.71,37.71s-37.71-16.92-37.71-37.71S811.6,0,832.39,0s37.71,16.92,37.71,37.71Z"/>
        </g>
      </g>
    </g>
  </g>
</svg>