<?xml version="1.0" encoding="UTF-8"?>
<svg id="Layer_2" data-name="Layer 2" xmlns="http://www.w3.org/2000/svg" viewBox="0 0 453.54 45.18">
  <defs>
    <style>
      .cls-1 {
        fill: #fff;
      }
    </style>
  </defs>
  <g id="Portrait">
    <g>
      <g>
        <path class="cls-1" d="m36.48,17.3c-.24.49-.51.84-.81,1.07s-.56.36-.8.41c-.23.05-.54.07-.92.06-.38,0-.71-.3-1-.87-.14.23-.33.41-.57.54-.24.13-.65.09-1.25-.12.12,1.37-.52,2.74-1.92,4.11-1.4,1.37-2.49,2.38-3.29,3.02-.8.64-1.79,1.28-2.99,1.92-1.2.64-1.96,1.02-2.28,1.15s-.92.33-1.79.59c-.87.26-1.53.44-1.97.52-.44.09-.84.14-1.18.17-.34.03-.81.07-1.41.11-.59.04-1.44.03-2.55-.04-1.1-.07-2.21-.35-3.32-.82-1.11-.48-1.92-.86-2.42-1.14-.5-.28-1-.6-1.48-.94-.48-.34-.99-.76-1.52-1.24-.53-.49-.99-.97-1.36-1.46-.37-.49-.7-.99-.99-1.52-.29-.53-.47-.89-.56-1.08-.09-.19-.12-.4-.1-.64.02-.24.15-.38.38-.43.24-.05.58.23,1.03.84.45.61.84,1.12,1.15,1.52.32.4.62.74.92,1.01.3.27.73.61,1.31,1.01.58.4,1.18.8,1.83,1.2.64.4,1.35.77,2.11,1.12.76.35,1.52.58,2.26.7.75.12,1.37.17,1.87.16.5-.01,1.11-.04,1.82-.1.71-.06,1.53-.18,2.46-.36.93-.19,1.67-.38,2.22-.57.55-.19,1.44-.63,2.67-1.32,1.23-.68,2.26-1.35,3.09-2.01.83-.65,1.54-1.28,2.13-1.87.59-.59,1.07-1.1,1.42-1.54.36-.43.59-.86.7-1.27.11-.41.12-.81.02-1.21-.09-.4-.25-.86-.48-1.4-.23-.54-.38-1.07-.47-1.59-.08-.52-.05-.88.1-1.09.15-.21.38-.31.7-.31.31,0,.58.37.81,1.1.23.73.4,1.19.5,1.39.11.2.26.34.46.41.2.08.35.12.47.12s.24-.04.38-.12c.14-.08.27-.24.37-.47.1-.23.22-.53.35-.89.13-.36.34-.56.63-.62.28.12.43.31.46.58.03.27.03.48.01.65s.09.4.34.71.48.36.71.17c.22-.19.36-.36.42-.51.06-.15.09-.34.1-.57,0-.23-.1-.38-.33-.44-.23-.07-.34-.42-.34-1.05,0-.64.13-1.09.38-1.37.25-.28.5-.37.74-.29.24.09.44.26.61.53.16.27.3.58.41.95.12.37.18.74.2,1.12.01.38,0,.74-.03,1.08-.03.34-.17.76-.41,1.24Z"/>
        <path class="cls-1" d="m44.18,4.05c.52-.16.83-.22.94-.18.11.04.17.09.17.14,0,.05.01.18.01.39s-.04.44-.11.68c-.07.24-.15.39-.21.45-.07.06-.41.27-1.02.62-.61.35-1.05.8-1.31,1.34-.26.54-.43,1.19-.51,1.93-.08.75-.07,1.39.03,1.92.1.53.26,1,.47,1.41.21.4.56.88,1.05,1.44.49.56.91.91,1.25,1.06.34.15.78.36,1.31.64.53.28,1.05.42,1.56.42h.94c.12,0,.3.08.53.23.24.15.36.27.39.35.02.08.03.28.03.58s-.06.62-.18.95c-.12.33-.23.52-.32.56-.09.04-.75,0-1.98-.11-1.23-.12-2.24-.17-3.04-.17s-1.21.07-1.21.21-.04.33-.12.56c-.08.23-.17.37-.29.42-.11.05-.23.12-.34.21-.12.09-.26.14-.43.14h-.52c-.18,0-.42-.09-.74-.28-.32-.19-.53-.31-.64-.37-.11-.06-.24-.17-.38-.33-.14-.16-.23-.39-.26-.68-.03-.3-.04-.53-.04-.69s.03-.52.09-1.06c.06-.54.22-.81.49-.81s.55-.01.83-.03c.28-.02.47,0,.57.04.09.05.22.07.39.07h.47c.14,0,.27-.01.39-.04.12-.03.17-.1.17-.21s-.15-.37-.46-.76c-.31-.39-.54-.77-.7-1.12-.16-.35-.28-.71-.37-1.07-.09-.36-.13-.93-.15-1.7-.01-.78.1-1.63.34-2.56.24-.93.47-1.63.71-2.09.24-.46.53-.96.89-1.48.35-.52.79-.87,1.31-1.03Z"/>
        <path class="cls-1" d="m52.55,3.19c.13-.04.31,0,.55.15.24.14.38.26.45.35.06.09.13.19.19.29.06.1.11.23.14.39.03.16.06.26.08.28.03.02.12.24.27.66.16.41.3,1.01.43,1.79.13.78.21,1.32.24,1.64.03.32.05.59.08.81.03.22.05.49.08.81.03.32.03.9,0,1.76-.03.86-.03,1.41-.01,1.65.02.25.04.49.06.72.02.24.13.51.32.81.19.31.38.56.57.77.19.21.62.4,1.3.57.68.17,1.17.26,1.49.26v2.23h-1.03c-.49,0-1.09-.23-1.81-.69s-1.13-.69-1.24-.69-.32.11-.63.33c-.31.22-.53.34-.66.36-.13.02-.31.03-.53.03s-.36-.08-.43-.24c-.07-.16-.09-.44-.06-.86.03-.42.08-.75.16-.99.08-.24.3-.59.67-1.05.37-.46.55-.72.55-.78s-.01-.15-.04-.27c-.03-.12-.01-.39.04-.8.05-.41.03-1.17-.08-2.27-.1-1.1-.16-1.72-.18-1.85-.02-.13-.11-.46-.27-.98-.17-.52-.34-.94-.53-1.26-.18-.32-.42-.61-.71-.88-.29-.27-.43-.51-.43-.75v-.7c0-.24.13-.55.39-.95.26-.4.46-.62.59-.66Z"/>
        <path class="cls-1" d="m68.29,11.93h.43c.27,0,.53.19.8.57s.47.78.61,1.21.2.68.2.76v.65c0,.35-.04.73-.11,1.13.17.18.41.33.72.44.31.12.75.18,1.33.18v2.24c-.65,0-1.24-.1-1.77-.3-.53-.2-.96-.43-1.31-.67-.07.04-.3.18-.71.42-.41.24-.67.39-.78.43-.12.04-.28.04-.48,0-.21-.04-.42-.16-.66-.33-.23-.18-.56-.41-.98-.7-.32.3-.67.55-1.03.75-.37.2-.66.31-.88.34-.22.03-.61-.02-1.17-.15-.56-.13-.95-.3-1.18-.53-.23-.23-.39-.39-.47-.5-.75.76-1.46,1.17-2.14,1.23h-.71s.01-2.24.01-2.24c.49.02.87-.04,1.16-.18.29-.15.55-.35.78-.62.23-.27.39-.53.49-.77.09-.25.21-.45.36-.61.15-.16.25-.24.3-.24h.3c.15,0,.33.19.52.57.19.38.37.63.53.75.16.12.4.25.72.38.33.13.57.19.73.18.16-.01.35-.13.56-.36.21-.22.33-.43.37-.61.04-.18.16-.4.35-.67.2-.27.35-.42.45-.45.1-.03.21-.03.31,0,.11.03.18.24.22.63.04.39.22.68.54.87.33.19.6.33.81.4.22.08.44.04.67-.1.23-.15.34-.27.34-.38,0-.1-.05-.29-.13-.54-.08-.26-.24-.42-.48-.49-.24-.07-.38-.2-.43-.39-.05-.19-.07-.48-.07-.88s.14-.73.41-1.01c.27-.28.42-.41.44-.41Z"/>
        <path class="cls-1" d="m72.89,3.8c.41-.23.71-.31.92-.25.21.06.41.22.61.48.2.25.39.65.57,1.19.18.54.3,1.05.35,1.54.05.48.13,1.74.25,3.77.11,2.03.21,3.4.3,4.11.09.71.13,1.27.13,1.69,0,.42-.06.8-.2,1.14-.14.34-.43.65-.87.95-.44.3-.93.49-1.47.59-.54.1-1.04.14-1.49.12v-2.24c.24,0,.42,0,.54,0,.12,0,.39-.01.81-.05.42-.04.7-.18.82-.41.13-.24.18-.58.15-1.01-.03-.44-.06-.95-.1-1.52-.04-.58-.06-1.6-.08-3.06-.02-1.46-.1-2.47-.25-3.03-.15-.56-.43-.96-.84-1.2-.41-.24-.64-.5-.69-.8-.05-.29-.08-.64-.08-1.05s.2-.73.61-.96Z"/>
        <path class="cls-1" d="m78.17,3.34c.25,0,.59.15,1.02.45.43.3.65.7.65,1.22v1.02c0,.17.01.36.04.57.03.21.04.49.04.85v.76c0,.15,0,.3.02.44.01.15.02.3.03.45.01.16.02.48.03.97,0,.49,0,1.18,0,2.06,0,.89,0,1.48.03,1.78.03.3.04.54.04.71s.04.43.11.77c.07.34.25.75.54,1.22.29.47.45.78.47.95.02.17.03.31.03.42s-.03.33-.1.65c-.07.32-.26.48-.58.48s-.72-.12-1.21-.35c-.49-.23-.73-.43-.73-.59v-1.04c0-.15.05-.37.15-.66.1-.28.13-.94.1-1.96-.03-1.02-.05-1.72-.06-2.08,0-.36,0-.65,0-.86,0-.21,0-.43-.02-.66-.02-.23-.02-.76-.02-1.59s-.03-1.47-.1-1.92c-.06-.45-.2-.75-.4-.88-.2-.13-.41-.37-.63-.72-.22-.34-.33-.57-.33-.68s.08-.44.25-.98c.16-.55.37-.82.62-.82Z"/>
        <path class="cls-1" d="m93.53,2.81c.13,0,.24.06.32.17.08.12.1.22.07.3-.04.09-.07.24-.1.46-.03.22-.12.43-.28.62-.16.19-.27.29-.34.29s-.3.17-.7.52c-.4.34-.66.58-.77.71-.11.13-.22.28-.33.47-.11.18-.2.42-.29.7-.08.28-.13.58-.15.89-.02.31,0,.61.03.89.04.28.13.66.29,1.14.15.47.4.9.73,1.27.34.37.6.64.78.81.18.17.41.35.67.54.26.19.56.43.89.7.33.27.73.47,1.22.61.48.14,1.06.31,1.73.53.67.21,1.1.35,1.31.42.2.07.3.18.3.35s0,.25.03.27c.02.02.03.19.03.54s.04.57.13.69c.09.12.25.18.48.19.24.01.46,0,.67-.02v2.26h-1.15c-.51,0-.98-.28-1.39-.83-.41-.55-.7-.84-.87-.86-.16-.02-.42-.02-.76,0-.34.02-.91.02-1.7,0-.79-.02-1.26-.03-1.41-.03s-.35.14-.58.43c-.23.29-.44.48-.63.57-.19.09-.38.14-.58.14s-.63-.07-1.3-.21c-.67-.14-1-.25-1-.34s-.07-.19-.2-.29c-.13-.1-.23-.26-.3-.48-.07-.21-.09-.44-.04-.7.04-.25.1-.52.18-.8.08-.28.19-.5.33-.63s.29-.21.45-.21.65.05,1.46.15c.81.1,1.33.15,1.55.15s.45-.02.7-.06c.24-.04-.03-.45-.83-1.24-.8-.79-1.27-1.34-1.43-1.65-.16-.31-.3-.62-.41-.94-.12-.32-.2-.62-.24-.91-.04-.29-.07-.53-.09-.72-.02-.19-.02-.47,0-.81.01-.35.06-.71.12-1.09.07-.38.13-.64.18-.8.05-.16.12-.35.21-.59.09-.24.26-.61.53-1.1.27-.5.63-.94,1.1-1.34.47-.4.79-.68.96-.85.17-.17.32-.26.45-.26Z"/>
        <path class="cls-1" d="m104.68,13.32c.3-.01.59.02.9.11s.58.24.85.47c.26.22.47.45.64.7.16.25.31.55.45.91s.22.72.26,1.08c.35.22.72.32,1.12.3h.5s0,2.24,0,2.24h-.78c-.58-.01-1.09-.17-1.55-.46-.64.56-1.21.87-1.69.94-.48.06-.88.07-1.2.03-.32-.04-.61-.16-.86-.34-.26-.19-.49-.39-.69-.61-.73.32-1.53.47-2.42.44h-.39s-.1,0-.1,0v-2.23c.15,0,.33,0,.55,0,.22,0,.4,0,.54.02.15,0,.38-.01.69-.07.31-.05.51-.26.59-.61.08-.36.22-.77.41-1.23.19-.47.53-.86,1.01-1.18.48-.32.87-.49,1.17-.5Zm-.21,2.2c-.15,0-.27.02-.36.06-.09.04-.17.11-.22.2-.05.09-.08.23-.09.4,0,.17.02.37.1.58.07.22.25.39.54.51.29.12.55.16.76.11.22-.05.36-.11.43-.17.07-.06.12-.17.16-.33-.17-.57-.4-.94-.67-1.1-.28-.17-.49-.25-.64-.25Z"/>
        <path class="cls-1" d="m121.65,6.63c.13,0,.33.07.62.2.29.13.64.46,1.06.96.42.51.69.98.81,1.42.12.44.18.88.16,1.32-.02.44-.15.96-.4,1.55-.25.59-.4.89-.44.89s-.15.09-.31.27c-.17.18-.38.3-.62.34-.25.04-.39.07-.43.07h-.48c-.28,0-.62-.18-1.03-.55-.41-.37-.63-.55-.67-.55s-.1.03-.19.1c-.08.07-.23.3-.43.69-.21.39-.36.67-.48.84-.11.17-.38.33-.81.48-.43.15-.97.15-1.63,0-.66-.15-1.11-.32-1.37-.51-.25-.19-.53-.63-.82-1.32-.29-.7-.48-1.05-.56-1.08-.08-.02-.37.06-.87.25-.5.19-.75.62-.75,1.31s.02,1.2.06,1.54c.04.34.18.61.4.82s.5.41.81.6c.31.19.54.28.68.28s.55.02,1.22.07c.67.04,1.06.07,1.18.07h.84c.44,0,1.32-.07,2.65-.21,1.33-.14,2.05-.21,2.18-.21s.52.08,1.18.25c.67.17,1,.43,1,.8s0,.58-.01.64c0,.07-.08.33-.21.79-.13.46-.35.69-.66.69s-.49.01-.55.03-.34-.06-.84-.24c-.5-.18-1.24-.25-2.21-.21-.97.04-1.62.07-1.96.07h-.9c-.27,0-.75,0-1.43.03-.68.02-1.43.03-2.24.03-.81,0-2.01,0-3.58-.03h-.59v-2.24h.26c.4,0,.77,0,1.1,0s.54-.03.62-.1c.08-.07.09-.34.03-.82-.06-.48-.04-1.18.06-2.1.1-.92.27-1.56.49-1.93.23-.37.53-.8.9-1.28.37-.48.72-.81,1.03-1,.31-.18.53-.27.66-.27h.44c.17,0,.33.3.47.9.14.6.29,1.09.44,1.49s.46.65.92.78c.46.13.88.13,1.28,0,.4-.13.7-.29.91-.49.21-.19.39-.48.53-.86.14-.38.36-.99.66-1.82.3-.83.64-1.5,1.04-2,.39-.5.65-.76.78-.76Zm-.73,3c-.09.16-.13.26-.13.31v.52c0,.3.26.47.77.52.52.05.82.07.9.07h.31c.12,0,.18-.05.18-.14s-.15-.37-.45-.83c-.3-.46-.55-.69-.75-.69h-.57c-.1,0-.19.08-.28.24Z"/>
        <path class="cls-1" d="m128.89,2.06c.2-.03.38-.03.54-.02.16.01.29.03.4.07.1.03.25.09.43.17.18.08.4.25.64.51.25.26.52.6.82,1.03.3.43.56.97.78,1.61.22.64.39,1.18.5,1.62s.18.74.21.91c.03.17.07.4.13.7.06.29.12.63.19,1.01.07.39.18.91.35,1.58.17.67.4,1.14.7,1.42.3.28.59.53.88.73.29.2.63.37,1.03.51.4.14.85.29,1.34.47.49.17.98.32,1.46.44.48.12.83.2,1.03.24.21.04.44.15.71.33.27.18.4.35.4.51s.04.3.11.44c.07.13.19.26.34.37.15.11.35.17.59.18.25,0,.49.01.72.01v2.24c-.45,0-.9,0-1.36,0-.46,0-.82-.17-1.09-.52-.27-.35-.4-.55-.4-.61s-.15-.12-.44-.17c-.3-.05-.81-.07-1.54-.04-.73.02-1.4.04-2.01.04-.61,0-.98.02-1.12.04s-.27.03-.4.03-.23,0-.3,0c-.06,0-.23.13-.51.37-.28.24-.52.41-.72.5-.21.09-.38.15-.52.16-.14.01-.43.01-.87,0-.44-.01-.82-.16-1.12-.46-.3-.3-.47-.47-.52-.54-.05-.06-.07-.14-.07-.24s.04-.33.11-.7c.07-.37.19-.69.35-.96.16-.27.39-.4.68-.4s.64.02,1.05.06c.41.04.98.06,1.71.06s1.22,0,1.46.02c.24.01.37-.02.39-.08.02-.07-.26-.26-.85-.58-.59-.32-1.02-.63-1.29-.94-.27-.31-.5-.62-.68-.92-.18-.3-.33-.7-.43-1.19-.1-.49-.19-.93-.26-1.32-.07-.39-.15-.74-.21-1.05-.07-.31-.13-.61-.2-.91-.07-.3-.15-.67-.25-1.12-.1-.45-.34-1.13-.74-2.02-.4-.9-.75-1.44-1.07-1.64-.32-.19-.56-.31-.72-.34-.16-.03-.31-.03-.45,0-.14.03-.27.17-.41.43-.13.25-.31.39-.53.4-.22.02-.37-.03-.45-.15-.08-.11-.13-.22-.15-.33-.02-.11,0-.3.07-.57.07-.27.18-.51.35-.7.16-.19.35-.35.55-.48.21-.12.41-.2.61-.22Z"/>
        <path class="cls-1" d="m149.24,19.13c-.64,0-1.12,0-1.45-.02-.32-.02-.54-.14-.66-.36-.12-.22-.28-.49-.47-.8-.19-.31-.32-.48-.38-.5-.06-.02-.12,0-.2.07-.07.07-.21.22-.41.45-.2.23-.41.44-.63.64-.22.19-.45.32-.68.36-.24.05-.43.09-.59.11-.16.03-.41.04-.75.05v-2.27c.34,0,.6,0,.79-.02.19-.02.42-.07.68-.14.26-.07.47-.18.63-.3.16-.13.29-.26.39-.41.1-.15.18-.31.25-.48.07-.18.12-.37.15-.59.03-.22.04-.4.04-.53,0-.13-.02-.28-.04-.44-.03-.16-.1-.82-.22-1.97-.12-1.15-.37-2.42-.75-3.82-.38-1.4-.65-2.15-.81-2.24-.16-.09-.28-.24-.35-.44-.07-.2-.12-.35-.13-.45-.02-.1-.02-.2,0-.3.01-.1.05-.23.11-.38.06-.15.17-.32.34-.5.17-.18.31-.29.41-.33.11-.03.27-.05.49-.04.22,0,.41.18.57.53.16.34.29.82.38,1.43s.28,2.12.57,4.54c.29,2.42.46,3.83.51,4.24.05.41.09.73.11.97.02.24.08.47.18.69.1.22.25.41.46.58.21.16.38.28.54.35.15.07.47.1.94.08v2.24Z"/>
        <path class="cls-1" d="m153.67,13.32c.3-.01.59.02.9.11s.58.24.85.47c.26.22.47.45.64.7.16.25.31.55.45.91s.22.72.26,1.08c.35.22.72.32,1.12.3h.5s0,2.24,0,2.24h-.78c-.58-.01-1.09-.17-1.55-.46-.64.56-1.21.87-1.69.94-.48.06-.88.07-1.2.03-.32-.04-.61-.16-.86-.34-.26-.19-.49-.39-.69-.61-.73.32-1.53.47-2.42.44h-.39s-.1,0-.1,0v-2.23c.15,0,.33,0,.55,0,.22,0,.4,0,.54.02.15,0,.38-.01.69-.07.31-.05.51-.26.59-.61.08-.36.22-.77.41-1.23.19-.47.53-.86,1.01-1.18.48-.32.87-.49,1.17-.5Zm-.21,2.2c-.15,0-.27.02-.36.06-.09.04-.17.11-.22.2-.05.09-.08.23-.09.4,0,.17.02.37.1.58.07.22.25.39.54.51.29.12.55.16.76.11.22-.05.36-.11.43-.17.07-.06.12-.17.16-.33-.17-.57-.4-.94-.67-1.1-.28-.17-.49-.25-.64-.25Z"/>
        <path class="cls-1" d="m159.08,3.8c.41-.23.71-.31.92-.25.21.06.41.22.61.48.2.25.39.65.57,1.19.18.54.3,1.05.35,1.54.05.48.13,1.74.25,3.77.11,2.03.21,3.4.3,4.11.09.71.13,1.27.13,1.69,0,.42-.06.8-.2,1.14-.14.34-.43.65-.87.95-.44.3-.93.49-1.47.59-.54.1-1.04.14-1.49.12v-2.24c.24,0,.42,0,.54,0,.12,0,.39-.01.81-.05.42-.04.7-.18.82-.41.13-.24.18-.58.15-1.01-.03-.44-.06-.95-.1-1.52-.04-.58-.06-1.6-.08-3.06-.02-1.46-.1-2.47-.25-3.03-.15-.56-.43-.96-.84-1.2-.41-.24-.64-.5-.69-.8-.05-.29-.08-.64-.08-1.05s.2-.73.61-.96Z"/>
        <path class="cls-1" d="m164.36,3.34c.25,0,.59.15,1.02.45.43.3.65.7.65,1.22v1.02c0,.17.01.36.04.57.03.21.04.49.04.85v.76c0,.15,0,.3.02.44.01.15.02.3.03.45.01.16.02.48.03.97,0,.49,0,1.18,0,2.06,0,.89,0,1.48.03,1.78.03.3.04.54.04.71s.04.43.11.77c.07.34.25.75.54,1.22.29.47.45.78.47.95.02.17.03.31.03.42s-.03.33-.1.65c-.07.32-.26.48-.58.48s-.72-.12-1.21-.35c-.49-.23-.73-.43-.73-.59v-1.04c0-.15.05-.37.15-.66.1-.28.13-.94.1-1.96-.03-1.02-.05-1.72-.06-2.08,0-.36,0-.65,0-.86,0-.21,0-.43-.02-.66-.02-.23-.02-.76-.02-1.59s-.03-1.47-.1-1.92c-.06-.45-.2-.75-.4-.88-.2-.13-.41-.37-.63-.72-.22-.34-.33-.57-.33-.68s.08-.44.25-.98c.16-.55.37-.82.62-.82Z"/>
        <path class="cls-1" d="m178.16,6.47c.27,0,.61.07,1.04.22.43.15.65.62.67,1.42.02.8.02,1.29,0,1.48-.02.19-.02.28,0,.28s-.03.33-.17.99c-.13.66-.2,1.01-.2,1.06s.16.17.47.38c.31.2.47.56.47,1.06s.16,1.12.48,1.83c.32.72.52,1.11.61,1.17.09.06.28.16.57.29.3.13.54.21.72.24.19.03.44.03.77,0l.02,2.22c-1.08.05-1.87-.01-2.35-.19-.48-.18-.83-.43-1.03-.74-.21-.31-.39-.65-.55-1-.16-.35-.25-.57-.28-.67-.03-.09-.08-.14-.17-.14s-.3.44-.64,1.31c-.34.87-.76,1.31-1.25,1.31s-.79.05-.88.14c-.09.09-.22.14-.38.14h-.44c-.13,0-.48-.09-1.05-.26-.56-.17-.87-.33-.9-.47-.04-.14-.12-.31-.24-.52-.12-.21-.18-.43-.18-.67s.06-.72.19-1.45c.13-.73.28-1.14.47-1.23.19-.1.38-.22.59-.38.21-.16.71-.44,1.52-.85.81-.41,1.41-.86,1.79-1.36s.57-.96.57-1.41-.13-.8-.4-1.06c-.27-.26-.45-.45-.54-.58-.09-.13-.13-.23-.13-.32s.07-.48.21-1.19c.14-.71.35-1.06.61-1.06Zm.18,7.7s-.36.25-.95.89c-.59.64-1.04.99-1.35,1.06-.31.07-.47.11-.47.14s0,.07.02.14c.01.07.1.1.27.1h1c.5,0,.82-.19.95-.56.13-.37.26-.73.4-1.06.13-.33.2-.52.2-.57s-.02-.1-.07-.14Zm-2.72-9.51v-.64c0-.23.13-.41.38-.55.25-.13.46-.2.64-.2h.55c.19,0,.36.06.52.17s.27.26.36.45c.09.19.18.17.27-.07.1-.24.25-.45.46-.64s.44-.29.68-.29h.61c.16,0,.35.16.57.47.22.31.33.53.33.64v.41c0,.16-.16.35-.47.56-.31.21-.56.31-.75.31h-.53c-.17,0-.29-.04-.36-.12-.07-.08-.15-.17-.23-.27-.08-.1-.14-.19-.18-.25-.04-.06-.17.04-.39.31-.21.27-.42.45-.63.56-.21.1-.37.15-.5.15h-.4c-.14,0-.32-.12-.55-.35-.23-.23-.34-.45-.34-.64Z"/>
        <path class="cls-1" d="m183.99,3.8c.41-.23.71-.31.92-.25.21.06.41.22.61.48.2.25.39.65.57,1.19.18.54.3,1.05.35,1.54.05.48.13,1.74.25,3.77.11,2.03.21,3.4.3,4.11.09.71.13,1.27.13,1.69,0,.42-.06.8-.2,1.14-.14.34-.43.65-.87.95-.44.3-.93.49-1.47.59-.54.1-1.04.14-1.49.12v-2.24c.24,0,.42,0,.54,0,.12,0,.39-.01.81-.05.42-.04.7-.18.82-.41.13-.24.18-.58.15-1.01-.03-.44-.06-.95-.1-1.52-.04-.58-.06-1.6-.08-3.06-.02-1.46-.1-2.47-.25-3.03-.15-.56-.43-.96-.84-1.2-.41-.24-.64-.5-.69-.8-.05-.29-.08-.64-.08-1.05s.2-.73.61-.96Z"/>
        <path class="cls-1" d="m202.87,3.41h.11c.49.2.96.68,1.44,1.44.26.64.39,1.27.39,1.92,0,.91-.25,2.22-.75,3.91-.24.58-.59,1.16-1.04,1.73.72,1.58,1.08,2.78,1.08,3.61,0,.32.55.6,1.65.83l.36.03h.47l.07.08v2.14l-.07.08h-.62c-.67,0-1.48-.45-2.43-1.36-.87.73-1.44,1.1-1.69,1.1l-.64.07h-.54c-.8,0-1.34-.35-1.61-1.05l-.36-1.09c-1.84,1.05-3.81,1.58-5.92,1.58-1.27,0-2.18-.58-2.72-1.73l-.11-.61v-.3c0-.58.16-1.01.47-1.31h.18c.1.09.25.44.46,1.05.5.75,1.3,1.12,2.41,1.12,2.85,0,5.4-1.21,7.67-3.64l.11-.19v-.03c-.16-.33-1.14-1.38-2.94-3.14-1.89-1.7-3.55-2.55-4.99-2.55-.5,0-1.03.43-1.58,1.28-.16.45-.25.8-.25,1.05,0,.54.34.84,1.03.9.3,0,.49.21.58.64v.16c0,.42-.28.66-.83.72h-.39c-.59,0-1.11-.45-1.55-1.36-.12-.44-.18-.82-.18-1.13,0-1.32.56-2.46,1.69-3.42.73-.43,1.41-.64,2.04-.64h.25c1.32.08,2.99,1.02,5.02,2.81,1.24,1.23,2.31,2.37,3.2,3.43.96-1.24,1.44-2.69,1.44-4.36-.06-.83-.31-1.24-.75-1.24l-.11-.04-.61.16h-.29c-.19-.11-.28-.39-.28-.83.15-1.2.53-1.81,1.14-1.81Zm-3.02,12.68c.14.45.61.67,1.4.67h.03c.89-.07,1.33-.29,1.33-.67v-.04c0-.45-.23-1.17-.68-2.18h-.08l-2.01,2.18v.04Z"/>
        <path class="cls-1" d="m216.08,3.49c.12-.08.33-.12.63-.12s.63.22,1,.66c.37.44.63.8.78,1.07.15.27.28.59.4.94.12.36.18.69.18,1.01s-.06.89-.17,1.72c-.12.83-.2,1.35-.26,1.55-.06.21-.14.45-.26.74-.12.29-.24.53-.35.71-.11.19-.42.54-.93,1.07-.51.53-.95.9-1.34,1.1-.39.21-.7.31-.93.31h-1.52c-.78,0-1.31-.29-1.59-.88-.28-.59-.45-.96-.5-1.13-.06-.17-.15-.25-.27-.25h-.44c-.17,0-.4.08-.68.23-.29.15-.43.25-.43.29s-.03.09-.1.15c-.06.06-.15.25-.25.57-.1.31-.16.53-.16.66s.05.38.16.77c.11.39.25.64.44.76.18.12.42.28.71.49.29.21.84.36,1.65.47.81.11,1.24.15,1.28.13.04-.02.1-.02.18,0,.08.02.19.03.31.03h2.76s.13-.01.31-.03c.18-.02.47-.03.87-.03s.64.01.72.03c.08.02.26.01.53-.03.27-.04.49-.07.67-.07s.37.27.59.82c.22.55.33.84.33.88s-.06.33-.17.88-.29.82-.53.82h-.67c-.21,0-.41-.08-.59-.25-.18-.17-.52-.27-1.02-.31-.5-.04-.93-.06-1.31-.06s-.63,0-.78-.02c-.15-.02-.34-.02-.59,0-.25.01-.88.01-1.91-.01-1.03-.02-2.14-.03-3.32-.03h-1.81s-.27.01-.77.03l-.38-.03.03-2.23c.28.02.55.03.79.03.24,0,.43,0,.57-.04.14-.03.2-.12.18-.26-.02-.14-.07-.36-.15-.65-.08-.29-.12-.56-.12-.82s.01-.39.03-.41c.02-.02.02-.04,0-.06s-.03-.13-.03-.31.04-.44.12-.76c.08-.32.16-.56.22-.73.06-.17.22-.55.47-1.16s.57-1.03.96-1.26c.4-.24.7-.43.91-.57s.39-.22.53-.22h.72c.18,0,.38.25.59.76.21.5.44.89.67,1.17.24.27.61.41,1.12.41h1.3c.35,0,.69-.15.99-.44.31-.3.63-.63.96-1,.33-.37.52-.68.57-.91.05-.23.07-.47.06-.7,0-.24-.1-.7-.26-1.38-.17-.69-.38-1.11-.62-1.26-.25-.15-.43-.29-.56-.41-.13-.12-.32-.18-.59-.18s-.42-.06-.47-.19c-.04-.13-.07-.26-.07-.41v-.5c0-.19.07-.4.22-.63.15-.24.28-.39.4-.48Zm-2.37,18.18c0,.4-.15.74-.44,1.03-.29.29-.64.44-1.05.44s-.78-.15-1.08-.44c-.29-.29-.44-.64-.44-1.03s.15-.75.44-1.04c.29-.29.65-.44,1.08-.44s.76.15,1.05.44c.29.29.44.64.44,1.04Z"/>
        <path class="cls-1" d="m222.08,3.34c.25,0,.59.15,1.02.45.43.3.65.7.65,1.22v1.02c0,.17.01.36.04.57.03.21.04.49.04.85v.76c0,.15,0,.3.02.44.01.15.02.3.03.45.01.16.02.48.03.97,0,.49,0,1.18,0,2.06,0,.89,0,1.48.03,1.78.03.3.04.54.04.71s.04.43.11.77c.07.34.25.75.54,1.22.29.47.45.78.47.95.02.17.03.31.03.42s-.03.33-.1.65c-.07.32-.26.48-.58.48s-.72-.12-1.21-.35c-.49-.23-.73-.43-.73-.59v-1.04c0-.15.05-.37.15-.66.1-.28.13-.94.1-1.96-.03-1.02-.05-1.72-.06-2.08,0-.36,0-.65,0-.86,0-.21,0-.43-.02-.66-.02-.23-.02-.76-.02-1.59s-.03-1.47-.1-1.92c-.06-.45-.2-.75-.4-.88-.2-.13-.41-.37-.63-.72-.22-.34-.33-.57-.33-.68s.08-.44.25-.98c.16-.55.37-.82.62-.82Z"/>
        <path class="cls-1" d="m236.26,4.23c.65-.17,1.29-.29,1.93-.35.64-.06,1.23-.03,1.75.08.52.12,1.01.32,1.45.6.44.28.65.52.62.72-.03.19-.1.32-.2.39-.1.06-.31,0-.63-.2-.32-.19-.72-.35-1.19-.48-.47-.13-.97-.16-1.5-.11-.52.05-.96.11-1.32.18-.36.07-.73.18-1.12.31-.39.14-.81.37-1.27.7-.46.33-.87.75-1.24,1.27-.37.52-.63,1.04-.78,1.56-.15.52-.24.87-.27,1.04-.04.17-.04.55-.02,1.12.02.58.08,1.07.18,1.47.1.41.25.87.45,1.38.2.52.57.99,1.1,1.44.53.44,1.2.81,1.98,1.12.79.31,1.52.49,2.21.55.68.06,1.35.06,1.98,0,.64-.06,1.27-.21,1.9-.45.63-.24,1.2-.52,1.72-.85.52-.33.95-.71,1.28-1.15.33-.44.7-.6,1.11-.5.41.1.62.31.63.61.02.3-.04.68-.18,1.13.27.73.74,1.08,1.41,1.05v2.25c-.67,0-1.21-.15-1.64-.46-.43-.31-.78-.68-1.05-1.11-.31.16-.73.38-1.28.65-.55.27-1.26.52-2.13.76s-1.96.29-3.27.16c-1.31-.13-2.47-.42-3.48-.87s-1.75-.9-2.2-1.34c-.46-.44-.86-1-1.21-1.65-.35-.66-.56-1.57-.64-2.74-.08-1.17,0-2.23.22-3.19.23-.96.52-1.72.86-2.29.34-.57.7-1.01,1.08-1.32.38-.31.77-.59,1.17-.85.4-.26.93-.47,1.58-.64Zm3.44,17.21c0-.26.1-.52.29-.78.19-.26.53-.39,1-.39.4,0,.69.09.87.27.18.18.27.44.27.78,0,.31-.12.51-.36.61-.24.1-.56.15-.98.15-.73,0-1.1-.21-1.1-.64Z"/>
        <path class="cls-1" d="m254.17,12.09c.73,0,1.45.32,2.16.95.71.64,1.51,1.31,2.39,2.02.88.71,1.39,1.07,1.53,1.07h1.55c.52,0,.88.19,1.07.57.19.38.28.68.25.91-.03.23-.1.47-.21.72-.11.25-.28.5-.51.76-.23.25-.47.38-.73.38s-.6-.11-1.01-.34c-.42-.23-.81-.43-1.18-.61-.37-.18-.75-.27-1.14-.27s-.83.01-1.33.04c-.5.03-1.17.1-2.02.21-.85.11-1.28.2-1.28.27s-.07.16-.21.29c-.14.13-.49.14-1.05.03s-.9-.21-1.03-.31c-.84.13-1.4.22-1.66.26-.26.04-.6.07-1.01.08-.41.02-.73.03-.95.03v-2.27h.73c.24,0,.58-.02,1-.07.42-.04.77-.12,1.04-.24-.03-.66,0-1.08.11-1.26.1-.18.22-.49.34-.92.12-.43.34-.84.65-1.22.31-.38.62-.65.94-.83.31-.18.84-.26,1.56-.26Zm-1.43,2.3c-.31.12-.52.33-.61.64-.09.31-.17.53-.25.67-.07.14-.04.41.11.81.49.06.92.06,1.29,0,.37-.06.94-.15,1.73-.27.78-.12,1.18-.21,1.18-.26s-.04-.13-.11-.23c-.07-.1-.31-.32-.71-.64-.4-.33-.77-.56-1.12-.7-.34-.14-.61-.21-.78-.2-.18,0-.43.07-.74.18Z"/>
        <path class="cls-1" d="m265.27,3.19c.13-.04.31,0,.55.15.24.14.38.26.45.35.06.09.13.19.19.29.06.1.11.23.14.39.03.16.06.26.08.28.03.02.12.24.27.66.16.41.3,1.01.43,1.79.13.78.21,1.32.24,1.64.03.32.05.59.08.81.03.22.05.49.08.81.03.32.03.9,0,1.76-.03.86-.03,1.41-.01,1.65.02.25.04.49.06.72.02.24.13.51.32.81.19.31.38.56.57.77.19.21.62.4,1.3.57.68.17,1.17.26,1.49.26v2.23h-1.03c-.49,0-1.09-.23-1.81-.69s-1.13-.69-1.24-.69-.32.11-.63.33c-.31.22-.53.34-.66.36-.13.02-.31.03-.53.03s-.36-.08-.43-.24c-.07-.16-.09-.44-.06-.86.03-.42.08-.75.16-.99.08-.24.3-.59.67-1.05.37-.46.55-.72.55-.78s-.01-.15-.04-.27c-.03-.12-.01-.39.04-.8s.03-1.17-.08-2.27c-.1-1.1-.16-1.72-.18-1.85-.02-.13-.11-.46-.27-.98-.17-.52-.34-.94-.53-1.26-.18-.32-.42-.61-.71-.88-.29-.27-.43-.51-.43-.75v-.7c0-.24.13-.55.39-.95.26-.4.46-.62.59-.66Z"/>
        <path class="cls-1" d="m271.37,16.89c.58-.06.97-.09,1.17-.09s.33-.18.38-.55c.06-.37.12-.74.18-1.11.07-.37.39-.78.98-1.24.59-.46,1.48-1.17,2.69-2.13,1.2-.96,2.2-1.73,2.98-2.32.78-.58,1.38-.98,1.81-1.18.42-.21.74-.32.94-.35.21-.03.46-.05.77-.05.31,0,.71.03,1.21.11.5.08.96.22,1.38.43.43.21.79.48,1.09.83.3.35.67.74,1.13,1.19.45.44.91.97,1.38,1.56.47.6.85,1.16,1.15,1.7.3.53.44.91.44,1.14v.55c0,.15-.01.32-.03.53-.02.21-.03.41-.03.62s.1.32.31.35c.21.03.39.04.55.04h.89l.03,2.23h-.77c-.39-.13-.74-.26-1.07-.38-.32-.12-.58-.08-.77.11-.19.19-.44.32-.76.38-.32.06-.52.09-.59.09s-.3-.09-.67-.27c-.37-.18-.78-.28-1.25-.3-.47-.02-1.26-.04-2.38-.04-1.12,0-1.91,0-2.37,0-.46.01-.75.02-.85.02s-.46,0-1.07,0c-.61,0-1.33.03-2.18.09-.84.06-1.74.11-2.7.16-.96.05-1.55.07-1.78.06-.23-.01-.42-.02-.57-.02-.15,0-.4.03-.76.07-.36.04-.61.06-.76.03-.15-.02-.33-.02-.55,0v-2.25h.45Zm2.74-.78c-.02.08.07.19.27.34.2.14.5.21.89.2.39,0,.71-.02.96-.04.25-.02.56-.04.92-.04.36,0,.65-.01.89-.01s.73-.04,1.5-.11c.77-.07,1.48-.13,2.14-.15.66-.03,1.24-.05,1.73-.08.5-.03.88-.05,1.15-.07.27-.01.85-.03,1.74-.04.89-.01,1.61-.11,2.18-.3.56-.19.81-.41.74-.66-.07-.25-.17-.53-.3-.81-.13-.29-.56-.78-1.31-1.49-.74-.71-1.34-1.27-1.79-1.7-.45-.43-.89-.74-1.33-.95-.44-.21-.85-.31-1.23-.32-.39,0-.85.02-1.41.08-.55.06-1.3.49-2.24,1.29-.94.8-1.69,1.43-2.24,1.91-.55.48-1.23,1.03-2.03,1.65-.8.62-1.21.97-1.21,1.06s0,.17-.03.25Z"/>
        <path class="cls-1" d="m293.08,3.8c.41-.23.71-.31.92-.25.21.06.41.22.61.48.2.25.39.65.57,1.19.18.54.3,1.05.35,1.54.05.48.13,1.74.25,3.77.11,2.03.21,3.4.3,4.11.09.71.13,1.27.13,1.69,0,.42-.06.8-.2,1.14-.14.34-.43.65-.87.95-.44.3-.93.49-1.47.59s-1.04.14-1.49.12v-2.24c.24,0,.42,0,.54,0,.12,0,.39-.01.81-.05.42-.04.7-.18.82-.41.13-.24.18-.58.15-1.01-.03-.44-.06-.95-.1-1.52-.04-.58-.06-1.6-.08-3.06-.02-1.46-.1-2.47-.25-3.03-.15-.56-.43-.96-.84-1.2-.41-.24-.64-.5-.69-.8-.05-.29-.08-.64-.08-1.05s.2-.73.61-.96Z"/>
        <path class="cls-1" d="m307.32,6.47c.27,0,.61.07,1.04.22.43.15.65.62.67,1.42.02.8.02,1.29,0,1.48-.02.19-.02.28,0,.28s-.03.33-.17.99c-.13.66-.2,1.01-.2,1.06s.16.17.47.38c.31.2.47.56.47,1.06s.16,1.12.48,1.83c.32.72.52,1.11.61,1.17.09.06.28.16.57.29.3.13.54.21.72.24.19.03.44.03.77,0l.02,2.22c-1.08.05-1.87-.01-2.35-.19-.48-.18-.83-.43-1.03-.74-.21-.31-.39-.65-.55-1-.16-.35-.25-.57-.28-.67-.03-.09-.08-.14-.17-.14s-.3.44-.64,1.31c-.34.87-.76,1.31-1.25,1.31s-.79.05-.88.14c-.09.09-.22.14-.38.14h-.44c-.13,0-.48-.09-1.05-.26-.56-.17-.87-.33-.9-.47-.04-.14-.12-.31-.24-.52-.12-.21-.18-.43-.18-.67s.06-.72.19-1.45c.13-.73.28-1.14.47-1.23.19-.1.38-.22.59-.38.21-.16.71-.44,1.53-.85.81-.41,1.41-.86,1.79-1.36s.57-.96.57-1.41-.13-.8-.4-1.06c-.27-.26-.45-.45-.54-.58-.09-.13-.13-.23-.13-.32s.07-.48.21-1.19c.14-.71.35-1.06.61-1.06Zm.18,7.7s-.36.25-.95.89c-.59.64-1.04.99-1.35,1.06-.31.07-.47.11-.47.14s0,.07.02.14c.02.07.1.1.27.1h1c.5,0,.82-.19.95-.56.13-.37.26-.73.4-1.06.13-.33.2-.52.2-.57s-.02-.1-.07-.14Zm-2.72-9.51v-.64c0-.23.13-.41.38-.55.25-.13.46-.2.64-.2h.55c.19,0,.36.06.52.17s.27.26.36.45c.09.19.18.17.27-.07.1-.24.25-.45.46-.64s.44-.29.68-.29h.61c.16,0,.35.16.57.47.22.31.33.53.33.64v.41c0,.16-.16.35-.47.56s-.56.31-.75.31h-.53c-.17,0-.29-.04-.36-.12-.07-.08-.15-.17-.23-.27-.08-.1-.14-.19-.18-.25-.05-.06-.17.04-.39.31-.21.27-.42.45-.63.56-.21.1-.37.15-.5.15h-.4c-.14,0-.32-.12-.55-.35-.23-.23-.34-.45-.34-.64Z"/>
        <path class="cls-1" d="m316.98,13.98h.22c.31,0,.47.11.5.33.03.22-.04.52-.18.9.25.67.64,1.12,1.17,1.37.4.2.81.3,1.26.3v2.24h-.21c-1.45-.03-2.48-.46-3.09-1.28-.19-.2-.39-.55-.59-1.05h-.04c-.09,0-.69.52-1.79,1.54-.8.53-1.47.8-2,.8v-2.24c.75-.03,1.66-.62,2.71-1.76.96-.77,1.64-1.15,2.06-1.14Zm-2.81,6.86c.75,0,1.26.37,1.52,1.1v.27c0,.49-.58.84-1.75,1.05h-.22c-.37,0-.77-.25-1.21-.75v-.62c0-.3.39-.62,1.17-.96l.49-.09Zm4.31,0h.31c.53,0,.87.13,1.03.39l.18.75c0,.65-.57,1.08-1.7,1.28-.48,0-.94-.22-1.39-.66l-.13-.66c.39-.73.96-1.1,1.7-1.1Z"/>
        <path class="cls-1" d="m325.24,12.65c.33-.09.72-.08,1.17.01.45.09.86.59,1.23,1.49.37.9.57,1.57.6,2.02.03.44-.03.88-.17,1.31-.14.43-.35.86-.62,1.29-.27.43-.65.7-1.14.81-.49.1-1.08.15-1.76.12-.68-.02-1.35-.47-1.99-1.33-.26.21-.56.39-.9.55-.34.16-.78.23-1.32.22h-.39v-2.25h.4c.69-.13,1.17-.29,1.44-.48s.53-.53.79-1.01c.26-.48.69-1.04,1.28-1.67.6-.63,1.06-.99,1.39-1.08Zm-1.28,3.45c-.06.13-.08.27-.07.42.01.15.13.32.37.49.24.17.53.28.89.31.35.04.69,0,.99-.1.31-.1.48-.27.52-.48.04-.22-.02-.47-.17-.75-.15-.28-.26-.47-.33-.56-.07-.09-.19-.18-.37-.26-.18-.08-.45-.07-.82.04s-.62.26-.74.43c-.12.18-.21.33-.27.45Z"/>
        <path class="cls-1" d="m330.08,3.19c.13-.04.31,0,.55.15.24.14.38.26.45.35.06.09.13.19.19.29.06.1.11.23.14.39.03.16.06.26.08.28s.12.24.27.66.3,1.01.43,1.79c.13.78.21,1.32.24,1.64.03.32.05.59.08.81.03.22.05.49.08.81.03.32.03.9,0,1.76-.03.86-.03,1.41-.01,1.65.02.25.04.49.06.72.02.24.12.51.32.81.19.31.38.56.57.77.19.21.62.4,1.3.57.68.17,1.17.26,1.49.26v2.23h-1.03c-.49,0-1.09-.23-1.81-.69s-1.13-.69-1.24-.69-.32.11-.63.33c-.31.22-.53.34-.66.36-.13.02-.31.03-.53.03s-.36-.08-.43-.24c-.07-.16-.09-.44-.06-.86.03-.42.08-.75.16-.99.08-.24.3-.59.67-1.05.37-.46.55-.72.55-.78s-.01-.15-.04-.27c-.03-.12-.01-.39.04-.8.05-.41.03-1.17-.08-2.27-.1-1.1-.16-1.72-.18-1.85-.02-.13-.11-.46-.27-.98-.17-.52-.34-.94-.53-1.26s-.42-.61-.71-.88-.43-.51-.43-.75v-.7c0-.24.13-.55.39-.95.26-.4.46-.62.59-.66Z"/>
        <path class="cls-1" d="m345.83,11.93h.43c.27,0,.53.19.8.57s.47.78.61,1.21c.13.43.2.68.2.76v.65c0,.35-.04.73-.11,1.13.17.18.41.33.72.44s.75.18,1.33.18v2.24c-.65,0-1.24-.1-1.77-.3-.53-.2-.96-.43-1.31-.67-.07.04-.3.18-.71.42-.41.24-.67.39-.78.43-.12.04-.28.04-.48,0-.21-.04-.42-.16-.66-.33-.23-.18-.56-.41-.98-.7-.32.3-.67.55-1.03.75-.37.2-.66.31-.88.34-.22.03-.61-.02-1.17-.15-.56-.13-.95-.3-1.18-.53-.23-.23-.39-.39-.47-.5-.75.76-1.46,1.17-2.14,1.23h-.71s.01-2.24.01-2.24c.49.02.87-.04,1.16-.18s.55-.35.78-.62c.23-.27.39-.53.49-.77s.21-.45.36-.61c.15-.16.25-.24.3-.24h.3c.15,0,.33.19.52.57.19.38.37.63.53.75.16.12.4.25.72.38.33.13.57.19.73.18.16-.01.35-.13.56-.36s.33-.43.37-.61c.04-.18.16-.4.35-.67s.35-.42.45-.45c.1-.03.21-.03.31,0,.11.03.18.24.22.63.04.39.22.68.54.87.33.19.6.33.81.4.22.08.44.04.67-.1.23-.15.34-.27.34-.38,0-.1-.05-.29-.13-.54-.08-.26-.24-.42-.48-.49-.24-.07-.38-.2-.43-.39s-.07-.48-.07-.88.14-.73.41-1.01c.27-.28.42-.41.44-.41Z"/>
        <path class="cls-1" d="m350.42,3.8c.41-.23.71-.31.92-.25.21.06.41.22.61.48.2.25.39.65.57,1.19.18.54.3,1.05.35,1.54.05.48.13,1.74.25,3.77.11,2.03.21,3.4.3,4.11.09.71.13,1.27.13,1.69,0,.42-.06.8-.2,1.14-.14.34-.43.65-.87.95-.44.3-.93.49-1.47.59s-1.04.14-1.49.12v-2.24c.24,0,.42,0,.54,0,.12,0,.39-.01.81-.05.42-.04.7-.18.82-.41.13-.24.18-.58.15-1.01-.03-.44-.06-.95-.1-1.52-.04-.58-.06-1.6-.08-3.06-.02-1.46-.1-2.47-.25-3.03-.15-.56-.43-.96-.84-1.2-.41-.24-.64-.5-.69-.8-.05-.29-.08-.64-.08-1.05s.2-.73.61-.96Z"/>
        <path class="cls-1" d="m355.7,3.34c.25,0,.59.15,1.02.45s.65.7.65,1.22v1.02c0,.17.01.36.04.57.03.21.04.49.04.85v.76c0,.15,0,.3.02.44s.02.3.03.45c.01.16.02.48.03.97,0,.49,0,1.18,0,2.06,0,.89,0,1.48.03,1.78s.04.54.04.71.04.43.11.77c.07.34.25.75.54,1.22.29.47.45.78.47.95.02.17.03.31.03.42s-.03.33-.1.65-.26.48-.58.48-.72-.12-1.21-.35c-.49-.23-.73-.43-.73-.59v-1.04c0-.15.05-.37.15-.66.1-.28.13-.94.1-1.96-.03-1.02-.05-1.72-.06-2.08,0-.36,0-.65,0-.86,0-.21,0-.43-.02-.66-.02-.23-.02-.76-.02-1.59s-.03-1.47-.1-1.92c-.06-.45-.2-.75-.4-.88s-.41-.37-.63-.72c-.22-.34-.33-.57-.33-.68s.08-.44.25-.98c.16-.55.37-.82.62-.82Z"/>
        <path class="cls-1" d="m369.5,6.47c.27,0,.61.07,1.04.22.43.15.65.62.67,1.42.02.8.02,1.29,0,1.48-.02.19-.02.28,0,.28s-.03.33-.17.99c-.13.66-.2,1.01-.2,1.06s.16.17.47.38c.31.2.47.56.47,1.06s.16,1.12.48,1.83c.32.72.52,1.11.61,1.17.09.06.28.16.57.29.3.13.54.21.72.24.19.03.44.03.77,0l.02,2.22c-1.08.05-1.87-.01-2.35-.19-.48-.18-.83-.43-1.03-.74-.21-.31-.39-.65-.55-1-.16-.35-.25-.57-.28-.67-.03-.09-.08-.14-.17-.14s-.3.44-.64,1.31c-.34.87-.76,1.31-1.25,1.31s-.79.05-.88.14c-.09.09-.22.14-.38.14h-.44c-.13,0-.48-.09-1.05-.26-.56-.17-.87-.33-.9-.47-.04-.14-.12-.31-.24-.52-.12-.21-.18-.43-.18-.67s.06-.72.19-1.45c.13-.73.28-1.14.47-1.23.19-.1.38-.22.59-.38.21-.16.71-.44,1.53-.85.81-.41,1.41-.86,1.79-1.36s.57-.96.57-1.41-.13-.8-.4-1.06c-.27-.26-.45-.45-.54-.58-.09-.13-.13-.23-.13-.32s.07-.48.21-1.19c.14-.71.35-1.06.61-1.06Zm.18,7.7s-.36.25-.95.89c-.59.64-1.04.99-1.35,1.06-.31.07-.47.11-.47.14s0,.07.02.14c.02.07.1.1.27.1h1c.5,0,.82-.19.95-.56.13-.37.26-.73.4-1.06.13-.33.2-.52.2-.57s-.02-.1-.07-.14Zm-2.72-9.51v-.64c0-.23.13-.41.38-.55.25-.13.46-.2.64-.2h.55c.19,0,.36.06.52.17s.27.26.36.45c.09.19.18.17.27-.07.1-.24.25-.45.46-.64s.44-.29.68-.29h.61c.16,0,.35.16.57.47.22.31.33.53.33.64v.41c0,.16-.16.35-.47.56s-.56.31-.75.31h-.53c-.17,0-.29-.04-.36-.12-.07-.08-.15-.17-.23-.27-.08-.1-.14-.19-.18-.25-.05-.06-.17.04-.39.31-.21.27-.42.45-.63.56-.21.1-.37.15-.5.15h-.4c-.14,0-.32-.12-.55-.35-.23-.23-.34-.45-.34-.64Z"/>
        <path class="cls-1" d="m377.06,9.16h.22c.52,0,1.21.83,2.06,2.5.15.41.22.92.22,1.54,0,2.27-.79,4-2.38,5.17-.73.53-1.5.79-2.3.77h-.48v-2.25c.55,0,1.14-.06,1.79-.19.72-.22,1.17-.49,1.35-.83.3-.41.45-.97.45-1.67,0-.93-.61-1.78-1.84-2.53-.18-.28-.27-.56-.27-.83.28-1.11.67-1.67,1.17-1.67Zm-1.3,11.03h.4c.44,0,.74.24.9.73v.47c-.16.74-.55,1.11-1.17,1.11h-.22c-.69-.28-1.03-.65-1.03-1.11v-.26c.22-.63.6-.94,1.12-.94Zm2.95-.85c.72,0,1.08.35,1.08,1.07,0,.58-.3.98-.9,1.19l-.4.09h-.18c-.63-.19-.94-.51-.94-.94l-.04-.29c0-.61.43-.98,1.3-1.11h.09Z"/>
        <path class="cls-1" d="m380.98,3.19c.13-.04.31,0,.55.15.24.14.38.26.45.35.06.09.13.19.19.29.06.1.11.23.14.39.03.16.06.26.08.28s.12.24.27.66.3,1.01.43,1.79c.13.78.21,1.32.24,1.64.03.32.05.59.08.81.03.22.05.49.08.81.03.32.03.9,0,1.76-.03.86-.03,1.41-.01,1.65.02.25.04.49.06.72.02.24.12.51.32.81.19.31.38.56.57.77.19.21.62.4,1.3.57.68.17,1.17.26,1.49.26v2.23h-1.03c-.49,0-1.09-.23-1.81-.69-.72-.46-1.13-.69-1.24-.69s-.32.11-.63.33c-.31.22-.53.34-.66.36-.13.02-.31.03-.53.03s-.36-.08-.43-.24c-.07-.16-.09-.44-.06-.86.03-.42.08-.75.16-.99.08-.24.3-.59.67-1.05.37-.46.55-.72.55-.78s-.01-.15-.04-.27c-.03-.12-.01-.39.04-.8.05-.41.03-1.17-.08-2.27-.1-1.1-.16-1.72-.18-1.85-.02-.13-.11-.46-.27-.98-.17-.52-.34-.94-.53-1.26s-.42-.61-.71-.88-.43-.51-.43-.75v-.7c0-.24.13-.55.39-.95.26-.4.46-.62.59-.66Z"/>
        <path class="cls-1" d="m393.4,6c.77-.07,1.48.07,2.13.44.65.37,1.14.76,1.48,1.17.34.41.54.72.61.93.07.21.2.41.39.62.19.21.26.59.21,1.14-.05.55-.21.89-.47,1.01-.26.12-.49.17-.7.16-.2-.01-.43-.06-.67-.15-.25-.09-.45-.29-.6-.61-.15-.32-.19-.57-.11-.74.08-.17.12-.36.12-.57s-.16-.55-.48-1.03c-.32-.48-.71-.79-1.15-.93-.45-.14-1.01-.16-1.69-.06-.68.1-1.21.3-1.6.6-.39.3-.7.62-.94.95s-.42.67-.54,1.01c-.12.34-.2.76-.22,1.27-.03.5.03.93.17,1.28.14.35.35.66.63.93.28.27.55.52.81.76.26.24.82.58,1.67,1.01.85.43,1.58.71,2.17.84.59.13,1.29.19,2.1.2.8,0,1.33,0,1.59-.03.26-.03.54-.04.85-.04s.54.07.69.22c.15.15.27.25.35.31.08.06.14.17.16.33.03.16-.07.56-.28,1.18-.21.62-.55.93-1,.93h-.94c-.18,0-.63-.06-1.37-.18-.74-.12-1.37-.21-1.89-.27-.52-.06-1.51-.03-2.97.09-1.46.12-2.52.2-3.18.26s-1.22.09-1.68.1h-.13v-2.24c.34,0,.7,0,1.1,0,.4,0,.8-.01,1.21-.05.4-.04.8-.07,1.19-.1-1.11-1.05-1.81-1.84-2.1-2.37-.3-.53-.48-1.08-.57-1.63-.08-.55-.07-1.11.05-1.67.12-.56.29-1.06.51-1.5.22-.44.55-.92.97-1.42.42-.5,1.02-.97,1.8-1.39.78-.42,1.55-.67,2.32-.75Z"/>
        <path class="cls-1" d="m403.61,14.28c.12-.03.23-.03.33-.01.1.02.15.07.17.16.01.08,0,.22-.02.43-.03.2.04.57.21,1.1.17.53.47.82.89.86.43.04.92.06,1.49.06v2.24c-.8,0-1.31,0-1.52-.02-.21-.02-.36.04-.45.16-.09.13-.16.39-.22.8-.06.4-.2.82-.41,1.25-.21.43-.41.81-.6,1.13-.19.32-.34.57-.47.74-.13.17-.59.65-1.38,1.44s-1.39,1.28-1.79,1.48c-.4.2-.72.37-.98.52-.25.14-.69.3-1.32.48-.63.18-.97.29-1.01.32-.05.03-.42.08-1.14.14-.71.06-1.32.07-1.81.04-.49-.03-.87-.07-1.13-.11-.26-.04-.68-.14-1.26-.31-.58-.16-1.23-.39-1.95-.68-.72-.29-1.16-.54-1.33-.73-.17-.2-.26-.36-.27-.47-.01-.12,0-.26.02-.44.02-.18.12-.28.29-.33.17-.04.35-.05.54-.02.19.03.49.16.89.4.4.24.75.41,1.04.49.3.09.45.13.47.13.02,0,.19.05.52.14.33.09.8.18,1.42.27.62.09,1.15.13,1.58.11.43-.02.86-.05,1.28-.08.42-.04.9-.16,1.44-.37.53-.21.95-.38,1.24-.51.3-.13.67-.35,1.11-.66.45-.31.82-.61,1.13-.89.31-.28.59-.56.83-.84.24-.28.44-.56.61-.86.16-.3.3-.57.4-.84.11-.26.25-.72.42-1.38.17-.66.17-1.13.02-1.42s-.26-.65-.32-1.09c-.06-.44-.07-.73-.05-.87.02-.14.07-.3.16-.46.08-.16.15-.35.21-.55.06-.2.17-.4.33-.61.16-.2.3-.32.42-.35Z"/>
        <path class="cls-1" d="m407.28,3.8c.41-.23.71-.31.92-.25.21.06.41.22.61.48.2.25.39.65.57,1.19.18.54.3,1.05.35,1.54.05.48.13,1.74.25,3.77.11,2.03.21,3.4.3,4.11.09.71.13,1.27.13,1.69,0,.42-.06.8-.2,1.14-.14.34-.43.65-.87.95-.44.3-.93.49-1.47.59s-1.04.14-1.49.12v-2.24c.24,0,.42,0,.54,0,.12,0,.39-.01.81-.05.42-.04.7-.18.82-.41.13-.24.18-.58.15-1.01-.03-.44-.06-.95-.1-1.52-.04-.58-.06-1.6-.08-3.06-.02-1.46-.1-2.47-.25-3.03-.15-.56-.43-.96-.84-1.2-.41-.24-.64-.5-.69-.8-.05-.29-.08-.64-.08-1.05s.2-.73.61-.96Z"/>
        <path class="cls-1" d="m412.56,3.34c.25,0,.59.15,1.02.45s.65.7.65,1.22v1.02c0,.17.01.36.04.57.03.21.04.49.04.85v.76c0,.15,0,.3.02.44s.02.3.03.45c.01.16.02.48.03.97,0,.49,0,1.18,0,2.06,0,.89,0,1.48.03,1.78s.04.54.04.71.04.43.11.77c.07.34.25.75.54,1.22.29.47.45.78.47.95.02.17.03.31.03.42s-.03.33-.1.65-.26.48-.58.48-.72-.12-1.21-.35c-.49-.23-.73-.43-.73-.59v-1.04c0-.15.05-.37.15-.66.1-.28.13-.94.1-1.96-.03-1.02-.05-1.72-.06-2.08,0-.36,0-.65,0-.86,0-.21,0-.43-.02-.66-.02-.23-.02-.76-.02-1.59s-.03-1.47-.1-1.92c-.06-.45-.2-.75-.4-.88s-.41-.37-.63-.72c-.22-.34-.33-.57-.33-.68s.08-.44.25-.98c.16-.55.37-.82.62-.82Z"/>
        <path class="cls-1" d="m426.74,4.23c.65-.17,1.29-.29,1.93-.35.64-.06,1.23-.03,1.75.08.52.12,1.01.32,1.45.6.44.28.65.52.62.72-.03.19-.1.32-.2.39-.1.06-.31,0-.63-.2-.32-.19-.72-.35-1.19-.48-.47-.13-.97-.16-1.5-.11-.52.05-.96.11-1.32.18-.36.07-.73.18-1.12.31-.39.14-.81.37-1.27.7-.46.33-.87.75-1.24,1.27s-.63,1.04-.78,1.56c-.15.52-.24.87-.27,1.04-.04.17-.04.55-.02,1.12.02.58.08,1.07.18,1.47.1.41.25.87.45,1.38.2.52.57.99,1.1,1.44.53.44,1.2.81,1.98,1.12.79.31,1.52.49,2.21.55.68.06,1.35.06,1.98,0,.64-.06,1.27-.21,1.9-.45.63-.24,1.2-.52,1.72-.85.52-.33.95-.71,1.28-1.15s.7-.6,1.11-.5c.41.1.62.31.63.61.01.3-.04.68-.18,1.13.27.73.74,1.08,1.41,1.05v2.25c-.67,0-1.21-.15-1.64-.46-.43-.31-.78-.68-1.05-1.11-.31.16-.73.38-1.28.65-.55.27-1.26.52-2.13.76s-1.96.29-3.27.16c-1.31-.13-2.47-.42-3.48-.87-1.01-.45-1.75-.9-2.2-1.34-.46-.44-.86-1-1.21-1.65-.35-.66-.56-1.57-.64-2.74-.08-1.17,0-2.23.22-3.19.23-.96.52-1.72.86-2.29.34-.57.7-1.01,1.08-1.32.38-.31.77-.59,1.17-.85.4-.26.93-.47,1.58-.64Zm4.48,5.66h.11c.38,0,.65.21.8.64v.66c-.49.76-.95,1.14-1.4,1.14h-.06c-.37-.18-.67-.53-.91-1.07,0-.76.16-1.14.48-1.14.37-.16.69-.24.98-.24Zm2.72.09h.25c.24.13.46.42.67.85-.2.87-.61,1.3-1.22,1.3l-.3.07c-.37-.2-.55-.49-.55-.85l-.06-.07c.17-.87.58-1.3,1.21-1.3Z"/>
        <path class="cls-1" d="m447.56,4.51c.34-.31.67-.43.99-.36.32.06.59.15.8.26.21.11.59.39,1.15.84.56.44.88.9.96,1.36.08.46.13.76.13.9,0,.14,0,.26,0,.35,0,.1,0,.28.01.54.01.27,0,.51-.04.75-.04.23-.07.44-.11.63-.04.19-.09.42-.16.7s-.22.63-.45,1.04c-.23.41-.53.87-.89,1.38-.36.5-.84.86-1.46,1.07-.61.21-1.05.34-1.32.38-.27.04-.51.07-.73.07h-.76c-.28,0-.78-.25-1.5-.75-.72-.5-1.19-.66-1.42-.5-.23.16-.41.38-.54.64-.13.27-.2.41-.22.43-.02.02-.04.22-.04.58,0,.36.03.58.1.66.07.08.18.21.34.38.16.18.45.38.86.61.41.23.96.34,1.64.34h1.74c.49,0,1.04-.01,1.67-.04.62-.03,1-.06,1.13-.11.13-.04.74-.08,1.83-.1,1.09-.02,1.73.15,1.92.53.19.37.29.61.31.71.02.1.03.18.03.25s-.07.35-.21.82c-.14.48-.31.78-.5.92-.19.13-.49.19-.89.17-.4-.02-.6-.13-.6-.34s-.03-.35-.1-.41c-.07-.07-.31-.1-.73-.1h-.87c-.16,0-.74,0-1.74-.03-1.01-.02-1.97-.02-2.9,0-.93.02-1.47.03-1.63.03s-.46.01-.93.03-.99.02-1.56,0c-.57-.02-1.07-.03-1.5-.03s-.78,0-1.04.02v-2.25c.34,0,.53-.01.59-.01s.27,0,.64,0c.37,0,.63,0,.8-.01.16-.01.21-.08.13-.21-.07-.13-.13-.36-.18-.7-.04-.34-.07-.56-.07-.65s0-.27.03-.53c.02-.26.04-.45.07-.58.03-.13.09-.37.2-.72.11-.35.3-.7.57-1.03.27-.33.61-.7,1.04-1.1.42-.41.73-.65.93-.72.2-.07.32-.11.36-.11h.27c.14,0,.31.14.5.41.2.27.39.47.59.61.19.13.56.29,1.1.48.54.19.89.29,1.04.29h.66c.28,0,.64-.14,1.07-.41.43-.27.79-.75,1.1-1.45.31-.69.45-1.28.43-1.77-.02-.49-.32-.89-.89-1.22-.58-.33-.91-.49-1-.49s-.22.02-.4.07c-.18.04-.35.07-.5.07s-.28-.24-.39-.71-.13-.83-.07-1.08.26-.52.59-.83Zm-2.69-4.41c.27-.07.42-.1.47-.1h.47c.27,0,.4.18.4.54s-.04.75-.13,1.16c-.09.41-.29.62-.6.62h-1.06c-.13,0-.25-.13-.36-.38-.12-.25-.17-.47-.17-.66s.1-.41.3-.68c.2-.27.44-.44.7-.5Zm3.2.19c.13-.06.24-.08.3-.08h.7c.4,0,.6.1.6.31s.03.34.1.41c.07.07.1.17.1.31s-.08.38-.23.72c-.15.34-.39.51-.7.51h-.84c-.24,0-.43-.14-.57-.41-.14-.27-.21-.51-.21-.72s.09-.42.27-.63c.18-.22.34-.35.47-.41Z"/>
      </g>
      <g>
        <path class="cls-1" d="m2.5,34.3v6.35c0,2.38,1.06,3.4,2.49,3.4,1.57,0,2.6-1.05,2.6-3.4v-6.35h1.4v6.25c0,3.29-1.73,4.62-4.05,4.62-2.19,0-3.84-1.24-3.84-4.57v-6.3h1.4Z"/>
        <path class="cls-1" d="m11.39,45v-10.7h1.52l3.41,5.41c.78,1.25,1.41,2.38,1.9,3.48l.05-.02c-.13-1.43-.16-2.73-.16-4.38v-4.49h1.3v10.7h-1.4l-3.4-5.43c-.75-1.19-1.46-2.41-1.98-3.57l-.05.02c.08,1.35.1,2.63.1,4.41v4.57h-1.3Z"/>
        <path class="cls-1" d="m21.83,34.45c.86-.13,1.86-.22,2.95-.22,1.98,0,3.4.46,4.33,1.33.97.87,1.52,2.11,1.52,3.84s-.56,3.18-1.54,4.16c-1.02,1-2.67,1.54-4.75,1.54-1,0-1.81-.03-2.52-.13v-10.52Zm1.4,9.48c.35.06.86.06,1.4.06,2.95.02,4.56-1.65,4.56-4.54.02-2.52-1.41-4.13-4.33-4.13-.71,0-1.25.06-1.62.14v8.46Z"/>
        <path class="cls-1" d="m37.94,39.98h-4.14v3.86h4.63v1.16h-6.03v-10.7h5.79v1.16h-4.4v3.38h4.14v1.14Z"/>
        <path class="cls-1" d="m40.23,34.46c.7-.14,1.71-.24,2.65-.24,1.48,0,2.44.29,3.11.89.52.46.84,1.19.84,2.03,0,1.4-.9,2.33-2.02,2.71v.05c.81.29,1.3,1.05,1.57,2.16.35,1.49.6,2.52.81,2.94h-1.43c-.17-.32-.41-1.22-.7-2.56-.32-1.48-.9-2.03-2.16-2.08h-1.3v4.63h-1.38v-10.54Zm1.38,4.86h1.41c1.48,0,2.41-.81,2.41-2.03,0-1.38-1-1.98-2.46-1.98-.67,0-1.13.06-1.36.13v3.89Z"/>
        <path class="cls-1" d="m53.53,35.48h-3.25v-1.17h7.92v1.17h-3.27v9.52h-1.4v-9.52Z"/>
        <path class="cls-1" d="m60.77,34.3v4.48h5.17v-4.48h1.4v10.7h-1.4v-5.02h-5.17v5.02h-1.4v-10.7h1.4Z"/>
        <path class="cls-1" d="m75.27,39.98h-4.14v3.86h4.63v1.16h-6.03v-10.7h5.79v1.16h-4.4v3.38h4.14v1.14Z"/>
        <path class="cls-1" d="m82.31,34.3v4.48h5.17v-4.48h1.4v10.7h-1.4v-5.02h-5.17v5.02h-1.4v-10.7h1.4Z"/>
        <path class="cls-1" d="m92.66,34.3v10.7h-1.4v-10.7h1.4Z"/>
        <path class="cls-1" d="m103.23,44.52c-.62.24-1.86.59-3.3.59-1.62,0-2.95-.41-4-1.41-.92-.89-1.49-2.32-1.49-3.98,0-3.19,2.21-5.52,5.79-5.52,1.24,0,2.22.27,2.68.49l-.35,1.13c-.57-.27-1.29-.46-2.37-.46-2.6,0-4.3,1.62-4.3,4.3s1.62,4.32,4.13,4.32c.9,0,1.52-.13,1.84-.29v-3.19h-2.16v-1.11h3.52v5.14Z"/>
        <path class="cls-1" d="m106.72,34.3v4.48h5.17v-4.48h1.4v10.7h-1.4v-5.02h-5.17v5.02h-1.4v-10.7h1.4Z"/>
        <path class="cls-1" d="m119.06,34.45c.67-.13,1.54-.22,2.65-.22,1.36,0,2.37.32,3,.89.59.51.95,1.29.95,2.22s-.29,1.73-.84,2.29c-.73.78-1.92,1.17-3.27,1.17-.41,0-.79-.02-1.11-.1v4.3h-1.38v-10.56Zm1.38,5.13c.3.08.68.11,1.14.11,1.67,0,2.68-.81,2.68-2.27s-1-2.1-2.52-2.1c-.6,0-1.06.05-1.3.11v4.14Z"/>
        <path class="cls-1" d="m127.9,41.64l-1.11,3.37h-1.43l3.64-10.7h1.67l3.65,10.7h-1.48l-1.14-3.37h-3.79Zm3.51-1.08l-1.06-3.08c-.22-.7-.38-1.33-.54-1.95h-.05c-.14.62-.32,1.29-.52,1.94l-1.05,3.09h3.22Z"/>
        <path class="cls-1" d="m136.7,35.48h-3.25v-1.17h7.92v1.17h-3.27v9.52h-1.4v-9.52Z"/>
        <path class="cls-1" d="m142.56,34.46c.7-.14,1.71-.24,2.65-.24,1.48,0,2.44.29,3.11.89.52.46.84,1.19.84,2.03,0,1.4-.9,2.33-2.02,2.71v.05c.81.29,1.3,1.05,1.57,2.16.35,1.49.6,2.52.81,2.94h-1.43c-.17-.32-.41-1.22-.7-2.56-.32-1.48-.9-2.03-2.16-2.08h-1.3v4.63h-1.38v-10.54Zm1.38,4.86h1.41c1.48,0,2.41-.81,2.41-2.03,0-1.38-1-1.98-2.46-1.98-.67,0-1.13.06-1.36.13v3.89Z"/>
        <path class="cls-1" d="m155.28,45.18c-2.84,0-4.81-2.19-4.81-5.43,0-3.4,2.1-5.62,4.95-5.62s4.83,2.24,4.83,5.41c0,3.67-2.24,5.64-4.95,5.64h-.02Zm.08-1.13c2.19,0,3.43-2.02,3.43-4.44,0-2.13-1.11-4.35-3.41-4.35s-3.44,2.14-3.44,4.46,1.24,4.33,3.41,4.33h.02Z"/>
        <path class="cls-1" d="m162.05,45v-10.7h1.52l3.41,5.41c.78,1.25,1.41,2.38,1.9,3.48l.05-.02c-.13-1.43-.16-2.73-.16-4.38v-4.49h1.3v10.7h-1.4l-3.4-5.43c-.75-1.19-1.46-2.41-1.98-3.57l-.05.02c.08,1.35.1,2.63.1,4.41v4.57h-1.3Z"/>
        <path class="cls-1" d="m174.23,41.64l-1.11,3.37h-1.43l3.64-10.7h1.67l3.65,10.7h-1.48l-1.14-3.37h-3.79Zm3.51-1.08l-1.06-3.08c-.22-.7-.38-1.33-.54-1.95h-.05c-.14.62-.32,1.29-.52,1.94l-1.05,3.09h3.22Z"/>
        <path class="cls-1" d="m190.14,44.52c-.62.24-1.86.59-3.3.59-1.62,0-2.95-.41-4-1.41-.92-.89-1.49-2.32-1.49-3.98,0-3.19,2.21-5.52,5.79-5.52,1.24,0,2.22.27,2.68.49l-.35,1.13c-.57-.27-1.29-.46-2.37-.46-2.6,0-4.3,1.62-4.3,4.3s1.62,4.32,4.13,4.32c.9,0,1.52-.13,1.84-.29v-3.19h-2.16v-1.11h3.52v5.14Z"/>
        <path class="cls-1" d="m197.77,39.98h-4.14v3.86h4.63v1.16h-6.03v-10.7h5.79v1.16h-4.4v3.38h4.14v1.14Z"/>
        <path class="cls-1" d="m207.6,45.18c-2.84,0-4.81-2.19-4.81-5.43,0-3.4,2.1-5.62,4.95-5.62s4.83,2.24,4.83,5.41c0,3.67-2.24,5.64-4.95,5.64h-.02Zm.08-1.13c2.19,0,3.43-2.02,3.43-4.44,0-2.13-1.11-4.35-3.41-4.35s-3.44,2.14-3.44,4.46,1.24,4.33,3.41,4.33h.02Z"/>
        <path class="cls-1" d="m214.35,34.3h5.76v1.16h-4.36v3.56h4.03v1.14h-4.03v4.84h-1.4v-10.7Z"/>
        <path class="cls-1" d="m226.85,34.3v4.48h5.17v-4.48h1.4v10.7h-1.4v-5.02h-5.17v5.02h-1.4v-10.7h1.4Z"/>
        <path class="cls-1" d="m237.21,34.3v10.7h-1.4v-10.7h1.4Z"/>
        <path class="cls-1" d="m239.45,43.32c.62.38,1.51.68,2.46.68,1.41,0,2.24-.73,2.24-1.81,0-1-.57-1.59-2.02-2.13-1.75-.6-2.83-1.52-2.83-3.02,0-1.67,1.38-2.9,3.46-2.9,1.08,0,1.89.25,2.35.51l-.38,1.14c-.33-.21-1.05-.51-2.02-.51-1.46,0-2.02.87-2.02,1.6,0,.98.65,1.48,2.13,2.05,1.81.71,2.71,1.57,2.71,3.14s-1.21,3.08-3.73,3.08c-1.03,0-2.16-.32-2.73-.7l.37-1.14Z"/>
        <path class="cls-1" d="m259.83,40.3c-.08-1.48-.17-3.3-.17-4.62h-.03c-.38,1.24-.81,2.6-1.35,4.06l-1.89,5.19h-1.05l-1.75-5.1c-.51-1.51-.92-2.89-1.22-4.16h-.03c-.03,1.33-.11,3.13-.21,4.73l-.29,4.59h-1.32l.75-10.7h1.76l1.83,5.17c.44,1.32.79,2.51,1.08,3.62h.03c.29-1.08.67-2.27,1.14-3.62l1.91-5.17h1.76l.67,10.7h-1.37l-.25-4.7Z"/>
        <path class="cls-1" d="m265.16,41.64l-1.11,3.37h-1.43l3.64-10.7h1.67l3.65,10.7h-1.48l-1.14-3.37h-3.79Zm3.51-1.08l-1.06-3.08c-.22-.7-.38-1.33-.54-1.95h-.05c-.14.62-.32,1.29-.52,1.94l-1.05,3.09h3.22Z"/>
        <path class="cls-1" d="m275.63,34.3h1.4v7.16c0,2.84-1.4,3.71-3.24,3.71-.52,0-1.14-.11-1.48-.25l.19-1.13c.29.11.7.21,1.17.21,1.24,0,1.95-.56,1.95-2.65v-7.05Z"/>
        <path class="cls-1" d="m284.85,39.98h-4.14v3.86h4.63v1.16h-6.03v-10.7h5.79v1.16h-4.4v3.38h4.14v1.14Z"/>
        <path class="cls-1" d="m286.97,43.32c.62.38,1.51.68,2.46.68,1.41,0,2.24-.73,2.24-1.81,0-1-.57-1.59-2.02-2.13-1.75-.6-2.83-1.52-2.83-3.02,0-1.67,1.38-2.9,3.46-2.9,1.08,0,1.89.25,2.35.51l-.38,1.14c-.33-.21-1.05-.51-2.02-.51-1.46,0-2.02.87-2.02,1.6,0,.98.65,1.48,2.13,2.05,1.81.71,2.71,1.57,2.71,3.14s-1.21,3.08-3.73,3.08c-1.03,0-2.16-.32-2.73-.7l.37-1.14Z"/>
        <path class="cls-1" d="m297,35.48h-3.25v-1.17h7.92v1.17h-3.27v9.52h-1.4v-9.52Z"/>
        <path class="cls-1" d="m305.69,45v-4.54l-3.4-6.16h1.59l1.51,2.95c.4.81.73,1.46,1.06,2.21h.03c.29-.7.67-1.4,1.08-2.21l1.54-2.95h1.56l-3.57,6.14v4.56h-1.4Z"/>
        <path class="cls-1" d="m315.27,34.3h1.38v5.16h.05c.29-.41.57-.79.84-1.14l3.27-4.02h1.71l-3.87,4.54,4.17,6.16h-1.64l-3.51-5.25-1.03,1.17v4.08h-1.38v-10.7Z"/>
        <path class="cls-1" d="m325.26,34.3v10.7h-1.4v-10.7h1.4Z"/>
        <path class="cls-1" d="m327.67,45v-10.7h1.52l3.41,5.41c.78,1.25,1.41,2.38,1.9,3.48l.05-.02c-.13-1.43-.16-2.73-.16-4.38v-4.49h1.3v10.7h-1.4l-3.4-5.43c-.75-1.19-1.46-2.41-1.98-3.57l-.05.02c.08,1.35.1,2.63.1,4.41v4.57h-1.3Z"/>
        <path class="cls-1" d="m346.28,44.52c-.62.24-1.86.59-3.3.59-1.62,0-2.95-.41-4-1.41-.92-.89-1.49-2.32-1.49-3.98,0-3.19,2.21-5.52,5.79-5.52,1.24,0,2.22.27,2.68.49l-.35,1.13c-.57-.27-1.29-.46-2.37-.46-2.6,0-4.3,1.62-4.3,4.3s1.62,4.32,4.13,4.32c.9,0,1.52-.13,1.84-.29v-3.19h-2.16v-1.11h3.52v5.14Z"/>
        <path class="cls-1" d="m360.77,40.3c-.08-1.48-.17-3.3-.17-4.62h-.03c-.38,1.24-.81,2.6-1.35,4.06l-1.89,5.19h-1.05l-1.75-5.1c-.51-1.51-.92-2.89-1.22-4.16h-.03c-.03,1.33-.11,3.13-.21,4.73l-.29,4.59h-1.32l.75-10.7h1.76l1.83,5.17c.44,1.32.79,2.51,1.08,3.62h.03c.29-1.08.67-2.27,1.14-3.62l1.91-5.17h1.76l.67,10.7h-1.37l-.25-4.7Z"/>
        <path class="cls-1" d="m368.69,45.18c-2.84,0-4.81-2.19-4.81-5.43,0-3.4,2.1-5.62,4.95-5.62s4.83,2.24,4.83,5.41c0,3.67-2.24,5.64-4.95,5.64h-.02Zm.08-1.13c2.19,0,3.43-2.02,3.43-4.44,0-2.13-1.11-4.35-3.41-4.35s-3.44,2.14-3.44,4.46,1.24,4.33,3.41,4.33h.02Z"/>
        <path class="cls-1" d="m376.84,34.3v4.48h5.17v-4.48h1.4v10.7h-1.4v-5.02h-5.17v5.02h-1.4v-10.7h1.4Z"/>
        <path class="cls-1" d="m387.55,41.64l-1.11,3.37h-1.43l3.64-10.7h1.67l3.65,10.7h-1.48l-1.14-3.37h-3.79Zm3.51-1.08l-1.06-3.08c-.22-.7-.38-1.33-.54-1.95h-.05c-.14.62-.32,1.29-.52,1.94l-1.05,3.09h3.22Z"/>
        <path class="cls-1" d="m404.49,40.3c-.08-1.48-.17-3.3-.17-4.62h-.03c-.38,1.24-.81,2.6-1.35,4.06l-1.89,5.19h-1.05l-1.75-5.1c-.51-1.51-.92-2.89-1.22-4.16h-.03c-.03,1.33-.11,3.13-.21,4.73l-.29,4.59h-1.32l.75-10.7h1.76l1.83,5.17c.44,1.32.79,2.51,1.08,3.62h.03c.29-1.08.67-2.27,1.14-3.62l1.91-5.17h1.76l.67,10.7h-1.37l-.25-4.7Z"/>
        <path class="cls-1" d="m417.26,40.3c-.08-1.48-.17-3.3-.17-4.62h-.03c-.38,1.24-.81,2.6-1.35,4.06l-1.89,5.19h-1.05l-1.75-5.1c-.51-1.51-.92-2.89-1.22-4.16h-.03c-.03,1.33-.11,3.13-.21,4.73l-.29,4.59h-1.32l.75-10.7h1.76l1.83,5.17c.44,1.32.79,2.51,1.08,3.62h.03c.29-1.08.67-2.27,1.14-3.62l1.91-5.17h1.76l.67,10.7h-1.37l-.25-4.7Z"/>
        <path class="cls-1" d="m426.54,39.98h-4.14v3.86h4.63v1.16h-6.03v-10.7h5.79v1.16h-4.4v3.38h4.14v1.14Z"/>
        <path class="cls-1" d="m428.81,34.45c.86-.13,1.86-.22,2.95-.22,1.98,0,3.4.46,4.33,1.33.97.87,1.52,2.11,1.52,3.84s-.56,3.18-1.54,4.16c-1.02,1-2.67,1.54-4.75,1.54-1,0-1.81-.03-2.52-.13v-10.52Zm1.4,9.48c.35.06.86.06,1.4.06,2.95.02,4.56-1.65,4.56-4.54.02-2.52-1.41-4.13-4.33-4.13-.71,0-1.25.06-1.62.14v8.46Z"/>
        <path class="cls-1" d="m444.55,45l-3.51-10.7h1.51l1.67,5.27c.44,1.44.84,2.76,1.14,4h.03c.3-1.24.73-2.59,1.22-3.98l1.81-5.29h1.48l-3.83,10.7h-1.52Z"/>
        <path class="cls-1" d="m452.44,34.3v10.7h-1.4v-10.7h1.4Z"/>
      </g>
    </g>
  </g>
</svg>